<?xml version="1.0" standalone="no"?>
<!DOCTYPE svg PUBLIC "-//W3C//DTD SVG 1.1//EN" "http://www.w3.org/Graphics/SVG/1.1/DTD/svg11.dtd">
<svg xmlns="http://www.w3.org/2000/svg">
<defs >
<font id="Caramel" horiz-adv-x="438" ><font-face
    font-family="Caramel"
    units-per-em="1000"
    panose-1="0 0 0 0 0 0 0 0 0 0"
    ascent="900"
    descent="-300"
    alphabetic="0" />
<glyph unicode=" " glyph-name="space" horiz-adv-x="199" />
<glyph unicode="!" glyph-name="exclam" horiz-adv-x="320" d="M119 110Q115 110 114 114T112 122Q112 138 126 174T165 257T217 353T272 443T322 511T356 537Q362 537 381 536T417 531T435 521Q435 520 434 519T433 517Q363 447 299 366T181 201Q170 184 160
166T139 129Q137 124 131 117T119 110ZM106 -24Q100 -24 88 -18T66 -4T56 12Q56 21 70 32T100 51T124 60Q128 60 131 58T135 51Q135 48 134 47Q122 32 118 14Q117 10 117 1T115 -16T106 -24Z" />
<glyph unicode="&quot;" glyph-name="quotedbl" horiz-adv-x="297" d="M222 286Q216 286 216 293Q216 297 219 300Q236 316 250 335T264 379Q264 386 263 392T261 405Q261 416 271 416Q277 416 290 413T313 403T324 388Q324 382 311 366T279 331T245 300T222 286ZM134
286Q128 286 128 293Q128 296 130 300Q148 316 162 335T176 379Q176 386 175 392T173 405Q173 416 183 416Q189 416 202 413T225 403T236 388Q236 382 223 366T191 331T156 300T134 286Z" />
<glyph unicode="#" glyph-name="numbersign" horiz-adv-x="527" d="M97 25Q92 25 91 30T89 39Q89 51 96 70T113 109T126 141H54Q49 141 35 141T7 145T-6 157Q-6 165 8 168T27 172H138Q149 201 159 230T180 288Q164 288 147 288T112 287Q107 287 93 288T65 292T52
304Q52 312 66 315T85 318Q111 318 137 318T191 317L221 403Q223 406 228 419T237 432Q242 432 243 428T244 419Q244 391 238 367T221 316Q250 316 277 316T333 315H349Q351 321 358 339T374 379T391 415T403 431Q408 431 409 425T410 416Q410 390 402 365T385
316Q414 316 442 317T498 319H502Q507 319 512 318T518 313Q518 307 501 302T464 293T438 289H374L331 172H432Q439 172 449 171T460 165Q460 159 443 154T406 146T380 143L320 142Q317 135 311 116T296 76T278 40T261 25Q256 25 255 30T253 39Q253 50 259 70T274
110T287 142H156Q153 134 147 115T132 76T114 40T97 25ZM167 172H297Q308 201 318 230T338 288H210L167 172Z" />
<glyph unicode="$" glyph-name="dollar" horiz-adv-x="309" d="M40 -39Q33 -39 33 -33Q33 -24 44 -4T72 41T103 85T125 114Q109 119 100 130T90 158Q90 167 97 167Q100 167 100 161Q100 139 117 130T153 121Q183 121 206 139T243 185T257 241Q257 266 249 289T232
337T224 388Q224 434 247 466T311 517Q330 525 350 525Q355 525 360 525T369 523Q373 529 385 545T410 576T429 591Q434 591 434 587Q434 586 432 584Q418 568 406 552T382 518Q398 511 404 497T411 465Q411 460 410 447T401 433Q398 433 398 437Q398 443 399 449T401
462Q401 478 394 491T372 511Q366 511 365 513Q356 516 347 516Q309 516 284 489T258 424Q258 391 271 361T298 304T311 250Q311 209 287 176T225 125T148 110Q120 77 92 42T46 -35Q45 -39 40 -39Z" />
<glyph unicode="%" glyph-name="percent" horiz-adv-x="467" d="M89 -77Q80 -77 77 -68T73 -52Q73 -30 93 10T145 100T216 204T292 305T360 390T404 443Q385 434 356 424T296 406T243 398Q244 397 244 395Q244 380 230 356T193 307T149 266T109 249H99Q82 249
73 265T63 295Q63 313 79 344T120 406T171 458T216 480Q250 480 250 444Q250 432 247 420Q248 419 253 419Q277 419 310 427T376 448T430 470H433Q437 470 445 465T461 452T469 439Q469 433 463 427Q449 410 417 374T344 291T259 192T178 94T118 9T95 -49Q95 -59
99 -61T104 -66Q104 -70 98 -73T89 -77ZM111 269Q124 269 143 283T182 319T214 362T227 396Q220 401 213 410T201 427Q188 427 170 411T135 371T107 326T95 290Q95 282 98 276T111 269ZM232 -55Q215 -55 206 -39T197 -9Q197 9 213 40T253 102T304 154T349 176Q383
176 383 140Q383 128 380 116Q382 113 387 114T392 108Q392 104 387 100T377 94V91Q377 76 363 52T327 3T283 -38T243 -55H232ZM244 -35Q258 -35 277 -21T316 15T348 58T361 92Q354 97 347 106T334 123Q321 123 303 107T268 67T240 22T228 -14Q228 -22 231 -28T244
-35Z" />
<glyph unicode="&amp;" glyph-name="ampersand" horiz-adv-x="450" d="M461 -174Q413 -174 374 -147T306 -80T257 0Q232 -8 202 -13T144 -18Q114 -18 88 -12T46 13T30 68Q30 103 47 133T90 190T146 239T200 281Q199 286 199 290T199 299Q199 332 216 367T256 426Q273
441 300 456T351 472Q369 472 378 458L373 452Q364 461 348 461Q320 461 300 446T267 406T248 356T241 306Q258 316 285 334T342 375T394 419T420 460Q419 468 409 468Q406 468 403 468T399 472Q399 474 402 476T407 479Q421 479 434 468T456 442T465 414Q465 393
448 371T403 328T346 287T288 253T243 228Q243 130 280 31Q316 47 355 73T425 133T464 208Q465 210 465 213T465 217Q465 232 453 237Q452 238 450 238T448 241Q448 243 451 245T455 247Q473 247 482 232T491 202Q491 172 469 143T413 88T346 43T287 12Q295 -10
310 -39T345 -95T391 -141T445 -159Q474 -159 490 -140T516 -95Q517 -93 519 -88T525 -83Q529 -83 529 -89T530 -100Q530 -174 461 -174ZM136 -1Q165 -1 193 5T249 20Q209 109 203 204Q188 194 163 176T113 135T71 90T54 46Q54 26 68 16T101 2T136 -1Z" />
<glyph unicode="&apos;" glyph-name="quotesingle" horiz-adv-x="156" d="M81 286Q75 286 75 293Q75 296 77 300Q95 316 109 335T123 379Q123 386 122 392T120 405Q120 416 130 416Q136 416 149 413T172 403T183 388Q183 382 170 366T138 331T103 300T81 286Z" />
<glyph unicode="(" glyph-name="parenleft" horiz-adv-x="250" d="M127 -23Q86 -21 57 2T13 62T-3 137Q-3 167 4 195T24 251Q45 296 82 336T165 410T262 466T359 499Q371 502 384 504T410 507Q412 507 417 505T423 499Q423 495 416 494T407 491Q386 489 367 485T327
474Q275 456 227 422T140 343T75 249Q59 217 47 181T35 109Q35 73 50 44T100 1Q108 -2 116 -3T134 -6Q136 -6 142 -7T149 -13Q149 -19 142 -21T131 -23H127Z" />
<glyph unicode=")" glyph-name="parenright" horiz-adv-x="434" d="M15 -23Q13 -23 7 -21T1 -15Q1 -11 8 -10T17 -8Q38 -5 58 -2T97 9Q150 27 198 61T285 140T350 234Q367 266 378 301T390 374Q390 409 375 439T324 482Q309 487 290 489Q288 490 282 491T275 497Q275
502 282 504T293 506H297Q338 504 367 481T411 422T427 346Q427 317 420 288T400 233Q379 188 342 148T259 74T162 18T65 -16Q53 -18 40 -20T15 -23Z" />
<glyph unicode="*" glyph-name="asterisk" horiz-adv-x="343" d="M159 231Q153 231 152 240T150 253Q150 262 153 278T159 310T165 337Q162 335 151 326T125 307T96 288T74 280Q66 280 66 286Q66 291 71 298T79 307L148 357Q144 357 135 357T112 356Q88 356 64
359T39 371Q39 376 49 379T63 383L156 387Q146 401 137 416T117 444Q113 450 106 460T99 478Q99 486 105 486Q110 486 117 482T127 474L180 406L199 484Q200 489 203 504T214 519Q219 519 220 511T222 495Q222 471 218 448T210 402Q211 403 223 412T253 432T284
453T302 462Q307 462 307 457Q307 447 292 432T258 403T230 384H317Q323 384 330 383T338 376Q338 369 323 365T286 359T247 357T224 356Q224 356 234 343T258 312T281 279T292 261Q292 255 287 255Q280 255 268 265T241 289T216 316T199 335Q198 329 194 313T184
277T172 245T159 231Z" />
<glyph unicode="+" glyph-name="plus" horiz-adv-x="361" d="M154 27Q152 27 152 29Q152 31 160 48T179 87T200 129T211 152Q187 151 163 150T114 148Q107 148 99 150T91 162Q91 168 96 173T108 179H225L271 275Q276 284 288 284Q301 284 301 272Q301 267 295
254T281 225T265 197T255 179H376Q377 179 380 179T383 177Q383 169 364 165T318 158T269 154T241 153Q237 146 227 126T203 83T176 44T154 27Z" />
<glyph unicode="," glyph-name="comma" horiz-adv-x="167" d="M28 -85Q21 -85 21 -78Q21 -74 24 -71Q41 -55 55 -36T69 8Q69 14 68 20T66 34Q66 45 76 45Q83 45 95 42T119 32T130 17Q130 11 117 -5T85 -40T50 -71T28 -85Z" />
<glyph unicode="-" glyph-name="hyphen" horiz-adv-x="287" d="M114 148Q107 148 99 150T91 162Q91 168 96 173T108 179H269Q270 179 272 179T275 177Q275 170 254 165T204 155T149 150T114 148Z" />
<glyph unicode="." glyph-name="period" horiz-adv-x="199" d="M100 -24Q94 -24 82 -18T60 -4T50 12Q50 21 64 32T94 51T118 60Q122 60 125 58T129 51Q129 48 128 47Q116 32 112 14Q111 10 111 1T109 -16T100 -24Z" />
<glyph unicode="/" glyph-name="slash" horiz-adv-x="403" d="M33 -69Q25 -69 21 -60T16 -43Q16 -21 30 6T62 59T93 104Q111 130 129 156T166 208Q171 215 186 236T224 286T271 346T317 404T354 448T374 465Q381 465 397 462T414 449Q414 445 412 442T408 436Q386
408 361 381T313 326Q261 266 211 206T112 81Q102 68 84 45T52 -1T38 -42Q38 -52 43 -54T48 -59Q48 -63 42 -66T33 -69Z" />
<glyph unicode="0" glyph-name="zero" horiz-adv-x="558" d="M89 -26Q33 -26 14 11Q7 24 7 41Q7 65 19 92T49 146T85 195T115 231Q146 265 180 293T246 340T294 358Q302 358 310 350T322 332T321 319Q306 309 272 287T196 234T115 171T51 106T25 47Q25 37 30 27Q39
12 66 12Q115 12 200 53Q242 73 287 103T375 168T451 237T505 302T525 354Q525 366 520 372Q511 385 492 390T446 396Q411 396 369 388T287 369T220 347Q214 345 211 355T207 376Q207 388 211 391Q248 413 296 426T392 440Q435 440 474 427T541 383Q554 370 559
354T564 324Q564 307 559 295Q543 252 503 207T408 121T294 46T181 -6T89 -26Z" />
<glyph unicode="1" glyph-name="one" horiz-adv-x="169" d="M23 -32Q20 -32 14 -26Q7 -16 7 1Q7 15 10 30T18 55Q31 91 55 130T107 206T164 277T213 336Q209 335 194 324T160 298T128 273T111 260Q106 256 100 256Q92 256 92 262Q92 269 103 278Q126 296 155 321T212
372T262 414T291 431Q295 431 310 427T338 416T342 402Q321 384 290 352T224 278T154 193T91 109T46 37T29 -11V-15Q29 -32 23 -32Z" />
<glyph unicode="2" glyph-name="two" horiz-adv-x="479" d="M339 -38Q335 -38 335 -33Q335 -29 338 -22Q343 -13 325 -10T275 -6Q256 -6 233 -7T187 -10Q147 -13 109 -16T45 -22T15 -25Q6 -25 6 -10Q6 -2 7 5T9 14Q73 44 142 81T281 161T411 253Q444 279 474 305T529
359Q543 374 543 385Q543 395 533 399T508 404Q480 404 439 395T356 369T284 331T247 287Q251 283 251 277Q251 273 247 271T238 273Q230 280 221 290T212 312Q212 332 236 349T299 379T380 402T461 417T521 422Q549 422 568 414T587 382Q587 372 582 357Q572 329
532 290T435 212Q389 180 338 150T241 96T162 57T117 37Q134 41 153 43T193 48Q213 50 233 51T272 52Q304 52 329 48T364 30Q368 25 368 13Q368 -5 359 -20Q349 -38 339 -38Z" />
<glyph unicode="3" glyph-name="three" horiz-adv-x="447" d="M109 -33Q65 -33 34 -15T3 47Q3 66 11 93Q13 100 21 119T43 148Q48 153 53 154T57 147Q57 144 48 132T29 105T20 75Q20 50 47 41T111 31Q144 31 177 36T228 49Q314 80 360 113T412 174Q415 195 386
205T311 216Q247 216 176 198Q168 196 165 205T162 226T161 242Q204 241 260 257T364 299Q395 316 419 338T444 375Q444 392 406 392Q380 392 346 386T279 367T220 337T187 299Q189 297 189 292Q189 288 186 286T177 288Q171 294 164 302T157 321Q157 326 160 332Q169
350 196 364T259 388T333 404T401 410Q441 410 458 399T475 371Q475 349 452 322T394 273T321 240Q347 240 374 233T421 212T440 173Q440 159 432 142T404 102Q383 79 355 58T299 21T249 -4Q216 -17 179 -25T109 -33Z" />
<glyph unicode="4" glyph-name="four" horiz-adv-x="421" d="M202 -84Q196 -84 192 -80Q186 -75 183 -64T179 -43Q179 -37 181 -29Q192 12 221 59T275 147Q271 148 261 148Q242 148 212 144T148 134T86 122T39 111T20 107Q14 107 11 115T8 131T7 140Q9 154 30
174T85 218T159 267T238 315Q276 338 309 362T389 408Q399 413 406 399T414 374Q414 368 411 366Q315 314 231 261T55 153Q72 157 101 162T165 171T236 178T300 180Q304 186 320 207T358 256T401 313T436 362T452 390V391Q452 402 459 407T476 413Q489 413 501
404T511 379Q510 372 494 350T455 298T409 241T369 194T351 173Q374 171 392 160T411 132Q411 115 385 99Q378 95 373 95Q370 95 370 98Q370 103 379 112Q387 121 387 129Q387 143 369 148T339 151Q331 142 316 122T283 76T247 23T218 -25Q206 -47 206 -62Q206
-69 209 -75Q210 -76 210 -78Q210 -84 202 -84Z" />
<glyph unicode="5" glyph-name="five" horiz-adv-x="430" d="M60 -52Q34 -52 15 -44T-4 -16Q-4 -5 3 10T28 45Q31 48 32 48Q33 48 33 45Q33 43 32 39T29 30Q25 20 23 12T20 -5Q20 -23 41 -23Q52 -23 69 -18T111 -2Q150 15 192 40T274 94T339 147Q362 169 377 191T392
230Q392 244 380 252T338 260Q331 260 324 260T308 258Q276 254 232 241T154 212Q132 201 120 192T104 183Q101 183 96 190T87 205T87 217Q104 237 127 263T176 318T223 370T261 412Q271 425 280 425Q287 425 297 422T327 416Q349 414 369 413T408 412Q446 412
475 415T523 422Q529 424 534 424T542 424Q546 424 546 422Q546 419 531 410Q502 392 456 377T339 358Q323 357 307 360T285 367L188 274Q228 285 258 288T313 292Q372 292 400 272T429 220Q429 183 395 139Q372 109 329 75T235 10T132 -39Q98 -52 60 -52Z" />
<glyph unicode="6" glyph-name="six" horiz-adv-x="421" d="M75 -37Q42 -37 21 -23T0 23Q0 43 11 74Q24 110 58 156T139 251T239 340T340 406T427 432Q443 432 456 424T475 399V397Q475 391 471 384T464 385Q460 397 447 397Q440 397 431 395T413 389Q372 375
324 345T229 276T140 195T68 114T27 44Q22 29 22 21Q22 -6 57 -6Q83 -6 121 7T199 41T274 83T328 124Q357 152 369 169T382 197Q382 211 361 211Q344 211 317 202T259 178Q222 160 184 136T118 90T83 56Q80 50 74 50Q70 50 73 59Q82 82 109 110T173 164T247 210Q275
224 300 232T344 240Q370 240 394 227T419 186Q419 171 410 152T380 109Q355 81 318 55T237 8T152 -25T75 -37Z" />
<glyph unicode="7" glyph-name="seven" horiz-adv-x="352" d="M8 -73Q-8 -73 -8 -60Q-8 -45 9 -18T56 45T120 118T189 191T252 253T298 295Q346 336 381 363T425 391Q423 392 414 392Q397 392 368 387T310 374T261 360Q232 351 190 342T112 332Q92 332 77 337Q63
342 63 355Q63 364 69 373T81 389Q96 404 115 416T140 430Q148 434 149 432T149 426Q146 423 146 417Q146 412 150 407T162 401Q169 400 177 400T195 399Q218 399 245 401T295 406Q313 408 337 410T387 412Q416 412 438 407T468 387Q469 385 469 382Q469 373 458
373Q446 373 439 385Q435 382 418 368T382 338T350 310Q336 297 309 270T249 207T182 132T119 57T72 -7T50 -51Q49 -61 35 -67T8 -73Z" />
<glyph unicode="8" glyph-name="eight" horiz-adv-x="351" d="M105 -25Q56 -25 27 -8T-2 41Q-2 66 21 100Q42 131 85 168T176 246Q159 277 159 312Q159 350 181 382T246 430Q268 438 288 438Q318 438 342 424T377 389Q401 404 424 416T468 438H470Q473 438 475
433T477 422Q477 413 473 412Q434 395 384 365V359Q384 345 378 331Q376 326 370 326T365 330Q368 338 369 344T370 357Q335 336 299 312T227 261Q238 242 252 219T277 171T288 118Q288 94 276 69T233 19Q180 -25 105 -25ZM220 280Q255 308 291 333T363 381Q347
409 310 409Q296 409 279 403Q248 392 230 370T211 319Q211 300 220 280ZM95 -12Q128 -12 156 3T202 40Q216 57 221 74T227 108Q227 140 212 170T183 227Q149 200 116 167T60 101T38 39Q38 19 49 7Q65 -12 95 -12Z" />
<glyph unicode="9" glyph-name="nine" horiz-adv-x="289" d="M67 -84Q31 -84 31 -49Q31 -21 49 15T97 92T158 169T218 236T263 280Q233 263 201 245T137 215T78 203Q51 203 34 220T16 263Q16 267 16 272T18 281Q24 305 47 329T102 375T169 414T235 441T286 451Q301
451 321 437T342 401Q342 399 342 396T341 391Q339 381 329 373T311 365Q300 365 300 380Q300 392 304 406T310 424Q303 427 293 427Q271 427 241 415T177 382T114 339T64 293T39 254Q36 243 48 239T65 235Q93 235 131 246T207 275T270 310Q273 312 288 322T318
343T338 353Q345 353 356 344T365 323Q365 321 347 302T299 251T234 181T166 104T106 28T68 -35Q66 -39 64 -47T61 -62Q61 -73 67 -75Q72 -77 71 -80T67 -84Z" />
<glyph unicode=":" glyph-name="colon" horiz-adv-x="232" d="M201 147Q195 147 183 153T161 167T151 183Q151 192 164 203T194 222T218 230Q230 230 230 221Q230 220 230 220T229 218Q222 210 219 203T212 185Q211 181 211 172T210 155T201 147ZM106 -24Q100
-24 88 -18T66 -4T56 12Q56 21 70 32T100 51T124 60Q128 60 131 58T135 51Q135 48 134 47Q122 32 118 14Q117 10 117 1T115 -16T106 -24Z" />
<glyph unicode=";" glyph-name="semicolon" horiz-adv-x="232" d="M201 147Q195 147 183 153T161 167T151 183Q151 192 164 203T194 222T218 230Q230 230 230 221Q230 220 230 220T229 218Q222 210 219 203T212 185Q211 181 211 172T210 155T201 147ZM27 -85Q21
-85 21 -78Q21 -74 24 -71Q41 -55 55 -36T69 8Q69 14 68 20T66 34Q66 45 76 45Q82 45 95 42T118 32T129 17Q129 11 116 -5T84 -40T50 -71T27 -85Z" />
<glyph unicode="&lt;" glyph-name="less" horiz-adv-x="273" d="M191 44Q190 44 189 47T187 51Q168 91 141 124T83 189Q82 190 82 192V195Q84 200 97 215T130 250T170 289T206 324T228 345Q236 353 244 362T262 378Q269 383 276 383Q282 383 282 378Q282 374 269
358T236 319T195 275T158 235T135 212Q140 202 150 182T172 139T192 97T200 68Q200 66 197 55T191 44Z" />
<glyph unicode="=" glyph-name="equal" horiz-adv-x="271" d="M155 194Q148 194 141 196T133 207Q133 213 138 218T149 224L310 225Q311 225 314 225T317 222Q317 215 296 210T245 201T190 196T155 194ZM103 76Q96 76 89 78T81 90Q81 96 86 101T97 107H258Q259
107 262 107T265 104Q265 97 244 92T193 83T138 78T103 76Z" />
<glyph unicode="&gt;" glyph-name="greater" horiz-adv-x="264" d="M61 46Q55 46 55 51Q55 55 68 71T101 110T142 154T179 194T201 217Q196 228 186 248T164 290T144 332T136 361Q136 363 139 373T145 384Q147 384 148 382T150 378Q169 338 196 304T254 240Q255
239 255 236V234Q253 229 240 214T207 179T167 140T131 105T108 83Q100 76 92 67T75 51Q68 46 61 46Z" />
<glyph unicode="?" glyph-name="question" horiz-adv-x="347" d="M128 110Q121 110 119 118T117 131Q117 155 138 185T191 245T252 302T299 343Q316 358 335 381T354 428Q354 454 333 465T289 476Q259 476 239 464T208 440T192 428Q189 428 189 433Q189 437 191
441T194 448Q216 483 253 510T333 537Q363 537 386 520T409 471Q409 439 390 408T339 347T273 289T207 235T157 184T137 136Q137 133 138 130T139 123Q139 119 136 115T128 110ZM83 -35Q77 -35 65 -29T43 -15T32 1Q32 10 46 21T76 41T100 49Q104 49 108 47T112
40Q112 38 110 36Q98 21 94 4Q93 0 93 -9T92 -27T83 -35Z" />
<glyph unicode="@" glyph-name="at" horiz-adv-x="588" d="M168 -28Q116 -24 84 7T51 93Q51 146 74 194T137 284T225 356T326 407T426 430Q433 431 439 431T453 431Q482 431 513 424T567 397T589 342Q589 323 580 304T571 282Q571 278 573 267T576 246Q576 200
550 159T491 88Q427 32 355 2T197 -28H168ZM192 -15Q263 -15 327 14T443 90Q470 113 495 143T531 208Q532 211 533 218T535 228Q535 231 534 231Q532 231 519 215T484 176T438 128T387 88T339 72Q322 72 311 81T300 109Q300 126 310 148T327 186Q317 173 301 155T267
118T229 87T191 74Q172 74 164 87T156 117Q156 128 159 137Q164 159 181 183T221 230T267 272T309 304Q317 310 327 314T348 319Q362 319 373 312T394 295Q396 299 397 301T404 304Q408 304 419 302T442 296T453 288Q453 286 449 284Q422 251 396 210T352 130Q349
123 345 113T341 94Q341 85 349 85Q359 85 380 101T428 142T478 192T519 236T535 260Q529 298 500 323T435 358Q418 363 398 364T360 365Q356 365 351 365T341 363Q338 364 337 367Q339 371 353 373T384 376T404 377Q419 377 434 376T464 370Q495 363 519 348T560
306Q561 305 562 305L563 306Q568 321 568 335Q568 366 550 384T506 410T453 418Q446 418 439 418T423 416Q360 410 303 380Q266 361 228 328T157 254T106 168T86 78Q86 27 115 6T192 -15ZM200 94Q207 94 214 97T226 104Q259 123 288 154T343 220T389 288Q387 289
383 289Q379 289 375 288T366 284Q318 259 275 217T202 128Q199 123 196 116T193 102Q193 94 200 94Z" />
<glyph unicode="A" glyph-name="A" horiz-adv-x="525" d="M10 -24Q6 -24 6 -20Q6 -12 24 14T71 74T129 142T182 201T213 235Q189 232 160 225T104 205T63 170Q55 159 55 145Q55 131 62 125T70 114Q70 112 64 112Q45 112 34 131T22 168Q22 179 25 188Q36 222 63
242T126 273T198 287T265 290Q314 340 366 389T476 477Q497 491 522 500T573 509Q601 509 622 495T643 450Q643 427 633 405T610 363Q603 352 587 324T548 259T503 182T461 105T429 42T417 5Q417 2 418 0Q406 -6 390 -6Q371 -6 367 5T362 33Q362 48 371 71T394
120T421 169T444 207Q437 217 420 223T380 234T337 240T306 242Q290 242 274 241T242 238Q204 198 167 156T95 71Q78 51 61 29T26 -13Q23 -16 19 -20T10 -24ZM452 220Q459 232 473 256T505 310T539 369T566 422T580 456Q585 476 572 481T549 486Q533 486 514 478T482
461Q430 424 382 380T290 289Q306 288 331 285T383 274T429 253T452 220Z" />
<glyph unicode="B" glyph-name="B" horiz-adv-x="545" d="M233 -38Q189 -38 142 -27T61 15Q59 17 59 19Q59 23 64 23L68 22Q98 12 129 8T191 4Q224 4 268 14T353 46T422 98T449 170Q449 201 428 216T379 238T326 244Q300 244 265 239T198 221T148 187Q113 144
88 95T33 -2Q29 -12 21 -12Q16 -12 16 -6Q16 -2 17 -1Q25 26 38 51T65 101Q70 110 84 134T119 192T161 261T204 328T238 378T257 397Q262 397 273 394T296 386T310 377Q280 343 250 310T191 242Q238 248 289 262T383 296Q398 303 419 315T461 344T496 379T510 416Q510
435 495 444T460 455T426 458Q370 458 317 444T211 412Q207 411 203 410T195 409Q183 409 177 417T171 436Q171 461 192 470Q199 473 206 474T221 477Q269 489 318 499T417 509Q444 509 476 503T532 478T556 425Q556 393 532 367T472 320T401 286T341 265T316 257H319Q327
257 335 257T352 258Q376 258 404 254T458 238T500 208T517 157Q517 136 509 117T489 80Q461 40 419 14T329 -25T233 -38Z" />
<glyph unicode="C" glyph-name="C" horiz-adv-x="579" d="M222 -36Q168 -36 122 -16T47 43T19 141Q19 202 48 257T125 357T233 436T355 488T472 506Q497 506 523 498T568 472T587 424Q587 390 562 360T509 311Q506 309 502 306T493 303Q488 303 488 309Q488 317
499 331T521 365T532 413Q532 453 504 468T441 483Q375 483 312 458T196 388T109 287Q93 259 82 227T70 162Q70 108 99 78T172 35T262 22Q340 22 404 41T528 114Q530 116 532 116Q535 116 535 110Q535 106 533 105Q501 62 448 31T335 -18T222 -36Z" />
<glyph unicode="D" glyph-name="D" horiz-adv-x="638" d="M178 -27Q160 -27 135 -26T86 -20T45 -4T28 26Q28 38 34 51Q48 80 71 120T121 203T174 287T223 357T259 399Q263 402 268 403T277 404Q282 404 293 401T305 390Q305 387 301 383Q262 334 224 283T148 180Q127
150 105 120T63 58Q56 48 56 38Q56 25 69 16T117 6Q163 6 224 18T350 53T470 110T564 188T609 286Q610 289 610 292T610 298Q610 344 582 373T512 419T424 443T344 450Q286 450 232 436T122 404Q118 403 115 402T106 401Q94 401 88 409T82 428Q82 453 104 462Q113
466 124 468T145 473Q198 485 251 493T358 501Q403 501 449 492T536 461T603 400Q640 346 640 283Q640 210 600 152T500 56Q457 28 402 10T288 -18T178 -27Z" />
<glyph unicode="E" glyph-name="E" horiz-adv-x="505" d="M157 -23Q143 -23 120 -22T74 -16T35 0T19 33Q19 50 34 82T73 156T127 241T185 325T237 397T273 445Q263 443 239 438T187 425T141 405T122 378Q122 373 123 371Q125 369 125 367Q125 360 117 360Q110
360 108 371T105 388Q105 411 123 429T166 461T209 481Q236 491 265 496T323 505Q329 511 333 515T347 519Q354 519 362 517T374 509Q385 509 396 509T418 510Q446 510 475 507T524 488T545 436Q545 428 542 416T533 394T516 384Q512 384 512 385Q512 387 518 395T524
413Q524 428 509 437T471 449T429 454T399 455Q365 455 332 452Q299 409 267 366T203 279Q261 279 318 279T434 278Q439 278 439 274Q439 265 430 261T413 255Q400 253 387 253T359 251Q334 250 303 248T242 242T188 229Q174 224 156 202T119 151T89 94T77 52Q77
30 93 20T132 6T171 3Q197 3 233 8T307 22T380 41T439 64Q443 66 446 66Q454 66 454 56Q454 37 433 25T396 7Q366 -2 322 -8T233 -19T157 -23Z" />
<glyph unicode="F" glyph-name="F" horiz-adv-x="375" d="M20 -15Q15 -15 15 -8Q15 6 31 40T75 121T134 218T197 315T252 397T289 447Q279 446 252 441T195 427T144 406T122 378Q122 373 123 371Q125 369 125 367Q125 360 117 360Q110 360 108 371T105 388Q105
411 123 429T166 461T209 481Q256 497 313 503T418 510Q446 510 475 507T525 488T546 436Q546 428 543 416T534 394T516 384Q513 384 513 385Q513 387 518 395T524 413Q524 428 509 437T471 449T429 454T399 455Q368 455 336 452Q346 448 351 440Q316 401 281 361T213
278H434Q439 278 439 274Q439 265 430 261T413 255Q400 253 386 252T357 249Q312 245 265 239T175 218Q133 167 102 110T36 -3Q33 -7 30 -11T20 -15Z" />
<glyph unicode="G" glyph-name="G" horiz-adv-x="600" d="M222 -36Q168 -36 122 -16T48 43T19 141Q19 202 48 257T125 357T233 436T355 488T472 506Q497 506 523 498T568 472T587 424Q587 390 562 360T509 311Q506 309 502 306T493 303Q488 303 488 309Q488 317
499 331T521 365T532 413Q532 453 504 468T441 483Q373 483 310 457T196 384T111 281Q94 253 83 220T71 154Q71 102 98 73T166 32T252 20Q287 20 333 26T425 49T504 92T547 161Q548 164 548 167T548 173V180Q529 185 511 186T473 188Q448 188 413 186T341 176T274
154T229 117Q221 104 221 92Q221 78 228 72T236 61Q236 58 230 58Q211 58 200 78T188 114Q188 119 189 124T192 135Q202 168 227 188T287 218T356 233T420 237Q437 237 454 236T487 233Q499 232 519 228T561 215T596 195T611 166Q611 164 610 158T605 151Q603 151
603 152T602 155Q596 163 584 168T561 176Q562 174 562 168Q562 128 538 96T474 39T388 -2T298 -27T222 -36Z" />
<glyph unicode="H" glyph-name="H" horiz-adv-x="507" d="M39 -26Q35 -26 34 -23T33 -17Q33 -10 45 14T76 70T115 134T151 192T173 227Q160 224 140 218T100 201T67 177T53 145Q53 131 61 125T70 114Q70 113 68 113T64 112Q44 112 31 131T18 168Q18 180 22 188Q34
225 66 245T139 275T212 288Q229 316 247 344T283 400Q274 409 274 419Q274 426 281 437T298 458T314 470Q319 472 333 474T353 476H356Q362 476 369 474T376 467Q376 463 372 457T365 448Q350 429 334 410T302 371Q286 351 271 331T239 289Q247 290 254 290T269
290Q287 290 305 289T342 286Q361 284 387 279T438 264T472 234Q477 224 476 216Q496 251 523 296T578 385T628 458T662 494Q672 498 681 498Q685 498 692 497T700 490Q700 486 697 482T692 474Q640 404 589 333T493 186Q466 141 443 95T398 0Q397 -2 395 -6T389
-11Q385 -11 385 -7T384 -1Q384 7 383 13T383 27Q395 62 411 95T445 160Q448 167 454 178T469 204Q468 206 466 209T459 215Q444 225 420 231T370 239T327 242Q296 242 269 241T209 234Q172 177 133 118T61 -2Q58 -6 52 -16T39 -26Z" />
<glyph unicode="I" glyph-name="I" horiz-adv-x="434" d="M247 370Q231 370 225 385T219 414Q219 451 252 465Q287 482 334 489T419 496Q433 496 453 494T495 486T530 469T544 438Q544 434 543 427T536 420Q531 420 531 425Q531 427 532 428T533 432Q533 445 516
450T478 457T449 459Q439 459 415 457T360 451T302 438T256 419T237 393Q237 384 243 378T250 371Q250 371 249 371T247 370ZM-12 -73Q-21 -73 -28 -56T-35 -32Q-35 -4 -16 14T33 43T91 59T141 64Q152 84 175 122T227 208T288 302T352 388T410 445Q412 446 415
446T421 446Q428 447 441 445T454 436V434Q454 429 448 423Q395 360 344 303T246 188T161 63Q172 63 191 60T231 51T266 34T281 8Q281 5 280 5Q279 6 279 7Q274 16 257 20T222 25T194 26Q165 26 138 23Q137 20 133 16T126 11Q123 11 123 15Q123 19 124 21Q112 19
89 14T40 0T-2 -22T-19 -53Q-19 -62 -15 -66T-10 -72Q-10 -73 -12 -73Z" />
<glyph unicode="J" glyph-name="J" horiz-adv-x="465" d="M105 -40Q88 -40 64 -35T21 -16T2 19Q2 67 32 109T110 185T214 243T324 282T418 300Q428 321 444 354T479 419T513 466Q503 465 480 461T431 449T387 430T368 404Q368 395 374 390T380 382H377Q361 382
355 397T349 425Q349 462 383 477Q417 493 464 500T549 507Q563 507 584 505T626 497T661 480T675 449Q675 445 674 439T667 432Q662 432 662 436L663 443Q663 456 646 461T608 468T580 470Q573 470 565 470T549 469Q525 454 504 424T465 360T434 300Q456 299 478
292T512 264Q513 262 513 260Q513 258 512 258Q511 258 504 263T479 268Q463 268 447 266T414 259Q390 214 369 170T319 87T249 15Q223 -5 191 -19T125 -39Q121 -40 116 -40T105 -40ZM111 -20Q160 -20 203 8T282 79T348 170T396 255Q362 246 313 225T214 176T124
115T68 50Q64 43 61 35T57 17Q57 -5 75 -12T111 -20Z" />
<glyph unicode="K" glyph-name="K" horiz-adv-x="423" d="M469 -61Q440 -61 403 -49T329 -14T259 36T208 98T188 165Q188 201 208 231T257 286T313 329Q345 350 386 374T473 422T563 465T643 496Q651 498 662 501T682 505Q684 505 687 505T690 500Q690 497 684
495Q671 491 658 487T631 477Q584 460 527 432T415 370T323 303Q298 281 278 252T258 188Q258 166 265 148Q277 113 305 78T370 14T438 -32Q448 -36 457 -39T476 -47Q481 -49 481 -54Q481 -61 473 -61H469ZM20 -15Q15 -15 15 -8Q15 -4 16 -2Q26 30 42 59T74 117Q109
179 146 237Q150 244 166 268T204 326T248 390T286 443T306 464Q314 464 330 456T351 440Q299 382 251 320T159 193Q127 144 97 95T36 -3Q33 -7 30 -11T20 -15Z" />
<glyph unicode="L" glyph-name="L" horiz-adv-x="469" d="M157 -23Q143 -23 119 -22T71 -16T29 1T12 34Q12 39 13 44T16 55Q26 83 49 122T104 206T168 293T232 374T282 435Q296 450 310 468T340 500Q351 510 366 510Q368 510 371 510T375 506Q375 505 374 504T373
503Q347 472 323 441T275 377Q262 360 239 328T190 256T139 177T99 104T83 52Q83 30 99 20T138 6T177 3Q212 3 261 12T359 35T439 64Q443 66 445 66Q453 66 453 56Q453 36 433 24T396 7Q375 1 344 -4T278 -14T211 -20T157 -23Z" />
<glyph unicode="M" glyph-name="M" horiz-adv-x="735" d="M620 -25Q603 -25 595 -13T586 15Q586 34 603 70T648 152T705 243T759 327T796 385Q803 396 809 411T816 439Q816 451 807 460T787 470Q768 470 747 459T711 437Q648 391 590 336T484 217Q464 191 447
162T414 103Q411 97 405 84T395 58T393 38Q388 36 383 32T373 27Q354 27 346 39T338 67Q338 87 353 119T392 190T443 268T494 343T534 406T549 445Q549 454 542 460T526 467Q508 467 484 457T444 437Q421 422 392 398T333 349T284 303Q229 246 176 186T77 60Q69
49 62 37T46 13Q42 6 39 0T32 -13Q29 -20 18 -20Q14 -20 8 -18T2 -9Q2 -6 3 -5Q26 51 52 105T106 213Q134 265 162 316T221 417Q229 431 241 451T265 483Q273 491 288 491Q294 491 306 489T328 481T338 466Q338 463 334 459Q300 424 269 380T209 289T155 201Q178
226 213 263T292 341T380 417T467 475T545 497Q598 497 598 443Q598 416 585 387T557 335Q579 356 609 383T675 436T746 479T812 496Q838 496 853 483T869 443Q869 419 858 394T835 349Q827 337 810 309T771 243T726 167T684 91T652 28T640 -9V-13Q635 -16 631
-20T620 -25Z" />
<glyph unicode="N" glyph-name="N" horiz-adv-x="484" d="M353 -26Q334 -26 323 -15T314 14Q316 32 333 65T374 141T426 229T478 317T517 393T532 444Q532 452 526 459T511 467Q496 467 474 457T440 437Q400 408 354 367T261 278T169 179T90 79T32 -13Q32 -13
28 -13T18 -14Q11 -14 7 -13T3 -5Q39 90 91 188T195 374Q215 406 235 439T278 503Q283 509 293 512T315 516Q329 516 340 511T351 495Q351 486 341 473Q322 451 306 428T272 380Q242 336 213 291T155 201Q178 226 213 263T291 341T379 417T467 475T545 498Q597
498 597 444Q597 416 584 388T557 335Q549 322 533 295T495 232T453 158T413 86T383 26T371 -8Q371 -11 373 -13Q367 -16 363 -21T353 -26Z" />
<glyph unicode="O" glyph-name="O" horiz-adv-x="484" d="M122 -5Q70 -5 41 21T11 102Q11 152 33 209T93 321T180 421T283 493T389 520Q443 520 482 489T522 402Q522 353 501 304T453 213Q427 174 391 135T312 65T221 14T122 -5ZM153 19Q191 19 230 39T307 90T374
156T423 221Q448 259 468 307T489 402Q489 440 471 465T411 490Q373 490 334 470T257 419T190 354T141 289Q116 251 96 203T75 108Q75 70 94 45T153 19Z" />
<glyph unicode="P" glyph-name="P" horiz-adv-x="439" d="M184 197Q182 197 179 197T176 201Q176 208 184 212T198 218L219 221Q250 225 282 235Q302 240 332 250T396 275T459 309T507 350T526 398Q526 424 505 437T457 454T410 458Q347 458 276 440T143 404Q136
401 127 401Q116 401 110 408T103 427Q103 452 124 461Q132 464 139 466T154 469Q213 481 274 491T396 502Q423 502 453 498T508 481T550 448T567 392Q567 358 543 331T481 283T406 250T341 230Q304 221 264 210T187 197H184ZM21 -12Q16 -12 16 -6Q16 -2 17 -1Q25
26 38 51T65 101Q70 110 84 134T119 192T161 261T204 328T238 378T257 397Q262 397 273 394T296 386T310 377Q269 331 227 284T148 187Q117 141 90 93T33 -2Q29 -12 21 -12Z" />
<glyph unicode="Q" glyph-name="Q" horiz-adv-x="498" d="M101 -139Q91 -139 80 -137T60 -128Q48 -118 40 -105T32 -75Q32 -48 51 -30T92 -3Q50 4 31 33T11 102Q11 151 33 208T93 320T180 420T282 493T389 520Q443 520 482 489T522 401Q522 352 501 302T453 212Q424
168 383 126T292 51T189 4Q173 0 158 -2T125 -5Q116 -5 102 -13T75 -30T56 -47Q47 -58 47 -68Q47 -79 55 -83T74 -88Q95 -88 117 -83T160 -71Q223 -54 292 -36T427 -17Q450 -17 477 -22T523 -43T543 -89Q543 -92 542 -98T536 -105Q532 -105 530 -100T527 -92Q524
-75 511 -69T481 -61T450 -59Q381 -59 318 -78T190 -121Q169 -128 147 -133T101 -139ZM153 19Q191 19 230 39T307 90T374 156T423 221Q448 259 468 307T489 402Q489 440 471 465T411 490Q373 490 334 470T257 419T190 354T141 289Q116 251 96 203T75 108Q75 70
94 45T153 19Z" />
<glyph unicode="R" glyph-name="R" horiz-adv-x="469" d="M54 -67Q45 -67 45 -58Q45 -45 57 -16T87 47T121 109T146 151Q140 168 140 186Q140 212 154 221T193 229Q212 259 231 288T272 347Q281 360 291 374T312 400Q314 402 320 402Q325 402 339 399T353 389Q353
388 349 386Q339 374 329 362T309 336Q283 303 258 269T209 199Q234 202 273 214T355 245T438 288T501 340T526 398Q526 425 505 437T457 454T410 458Q346 458 276 440T143 404Q136 401 127 401Q116 401 110 408T103 427Q103 452 125 461Q131 464 139 466T154 469Q213
481 274 491T396 502Q423 502 453 498T508 481T550 448T567 392Q567 358 543 328T483 275T409 235T343 211Q309 202 276 194T208 178Q215 152 231 129T266 88Q303 54 353 27T453 -11Q464 -13 473 -14T493 -17Q499 -17 499 -23Q499 -28 493 -29T481 -31Q444 -31
397 -20T303 12T218 61T159 122Q144 98 126 68T91 7T65 -50Q64 -54 62 -60T54 -67Z" />
<glyph unicode="S" glyph-name="S" horiz-adv-x="309" d="M140 -12Q104 -12 81 5T46 52T33 113H40Q47 79 70 53T130 27Q158 27 178 44T210 86T221 137Q221 171 206 196T172 243T137 287T122 338Q122 348 124 357T129 375Q139 403 171 428T245 473T327 504T396
515Q430 515 439 503T456 461Q457 459 453 458T447 457Q429 453 401 441T348 411T319 373L310 374Q315 399 335 423T376 462Q353 460 319 447T250 414T192 368T168 316Q168 289 182 265T215 216T248 164T263 103Q263 70 246 44T200 3T140 -12Z" />
<glyph unicode="T" glyph-name="T" horiz-adv-x="354" d="M115 -11Q112 -11 112 -7T111 -1Q111 17 125 52T162 131T213 223T268 315T318 394T353 446Q326 445 285 443T199 434T119 414T63 379Q59 375 56 369T52 356Q52 343 61 338T71 327Q71 326 69 326T65 325Q45
325 28 341T11 377Q11 382 12 387T15 397Q28 429 63 448T142 476T230 489T304 492Q325 492 346 491T387 488Q397 498 414 498Q418 498 422 497T426 490Q426 488 424 484Q434 483 454 479T495 468T532 451T547 426Q547 423 546 417T539 411Q538 411 538 412T536
415Q532 420 524 423T508 429Q482 437 454 441T397 446Q336 365 279 281T175 108Q162 82 150 55T124 0Q123 -2 121 -6T115 -11Z" />
<glyph unicode="U" glyph-name="U" horiz-adv-x="467" d="M407 -90Q359 -90 338 -62T317 12Q317 44 326 79T346 144Q351 157 356 168T368 192Q324 141 277 103T170 31Q149 19 123 8T71 -3Q44 -3 30 12T16 53Q16 77 25 102T45 148Q74 205 110 259T181 368Q191 383
197 392T209 410T225 435Q231 444 236 453T248 472Q257 487 274 487Q284 487 284 478Q284 473 281 467Q271 450 253 417T213 341T168 254T127 167T97 93T85 45Q85 21 106 21Q119 21 134 28T160 41Q229 81 280 126T372 221T452 328T536 447Q541 453 551 469T573
499T593 513Q602 513 602 504Q602 501 601 500Q552 426 500 338T410 140Q398 107 388 66T378 -11Q378 -23 381 -39T393 -67T418 -79Q432 -79 443 -70T458 -60Q460 -60 460 -64Q460 -73 450 -78T427 -87T407 -90Z" />
<glyph unicode="V" glyph-name="V" horiz-adv-x="354" d="M56 -3Q7 -3 7 48Q7 74 19 101T44 151Q52 163 68 190T105 254T147 328T187 402T217 462T229 495Q229 498 228 500Q240 506 252 506Q270 506 281 495T293 466Q293 449 276 416T233 339T177 249T121 160T78
87T61 41Q61 25 79 25Q95 25 119 35T156 55Q262 132 348 231T511 437Q522 453 538 479T566 517Q577 528 588 528Q595 528 601 525T608 514Q608 509 605 504Q585 474 547 425T460 319T356 205T246 101T142 26T56 -3Z" />
<glyph unicode="W" glyph-name="W" horiz-adv-x="705" d="M63 -7Q10 -7 10 47Q10 77 26 118T67 206T122 297T178 380T224 442Q236 457 249 473T278 502Q289 512 304 512Q314 512 330 506T346 487Q346 482 342 476Q320 451 287 410T216 320T147 221T94 125T73 47Q73
36 78 29T95 21Q107 21 121 27T146 39Q196 68 243 112T334 206T410 302Q433 334 455 367T498 435Q507 450 517 466T534 498Q549 498 567 491T586 464Q586 454 576 435T550 393T521 351T501 323Q488 304 476 285T453 246Q441 224 425 191T397 125T385 64Q385 48
392 36T418 23Q450 23 485 41T555 89T622 154T679 222T720 279Q742 313 760 358T778 443Q778 459 774 472T756 494Q755 495 752 496T748 500Q748 505 758 506T773 508Q799 508 808 489T817 447Q817 422 810 393T793 341Q777 301 744 254T668 161T576 77T476 16T380
-7Q349 -7 338 12T326 60Q326 98 340 142T371 221Q355 199 329 171T274 115T216 62T164 25Q143 13 115 3T63 -7Z" />
<glyph unicode="X" glyph-name="X" horiz-adv-x="316" d="M307 -52Q303 -52 295 -49T278 -37Q265 -25 250 -3T220 46T194 98T176 142Q110 69 43 0Q43 0 28 -4T3 -9Q-8 -9 0 0Q43 41 84 85T167 172Q148 233 136 302T124 435V455Q125 463 135 475T160 498T185 508Q201
508 201 486Q201 472 201 457T200 428Q200 400 201 361T205 282T214 215Q262 267 308 319T400 427Q425 456 449 486T495 547Q515 575 523 575Q528 575 525 563T510 534Q484 497 456 461T398 389Q310 284 218 182Q223 161 232 134T252 77T275 24T297 -12Q315 -33
315 -45Q315 -52 307 -52Z" />
<glyph unicode="Y" glyph-name="Y" horiz-adv-x="447" d="M79 -191Q60 -191 39 -186T4 -166T-11 -129Q-11 -125 -9 -120T-2 -114Q3 -114 4 -118T7 -125Q8 -128 8 -130T10 -136Q16 -149 33 -158T63 -167Q102 -167 136 -147T198 -103Q263 -48 308 22T390 170T463
323Q438 295 403 256T327 174T241 93T154 30T73 0H65Q39 0 25 15T10 55Q10 81 20 105T44 151Q53 166 73 200T119 277T167 362T206 435T221 477Q221 480 220 482Q231 488 243 488Q260 488 270 478T280 450Q280 433 265 400T227 326T177 240T128 156T89 86T74 43Q74
26 92 26Q106 26 125 36T165 62T204 92T234 117Q305 180 368 252T488 400Q507 426 524 453T561 506Q566 516 577 516Q581 516 584 514T588 507Q588 501 583 496Q563 470 544 433T509 355T478 273T454 201Q433 135 402 66T327 -61T221 -155T79 -191Z" />
<glyph unicode="Z" glyph-name="Z" horiz-adv-x="419" d="M9 -12Q-10 -12 -10 4Q-10 17 -1 31T21 55T48 65Q55 65 61 65T75 60Q89 74 122 108T200 186T293 278T384 366T459 432T501 460Q498 462 495 462T490 462Q471 462 442 457T383 444T335 430Q303 420 265
412T194 404Q186 404 174 405T153 412T143 428Q143 445 158 459T193 483T228 493Q226 490 226 484Q226 472 239 470T263 467Q311 467 358 473T453 479Q459 479 473 478T502 475T529 467T540 452Q540 449 539 443T532 437Q528 437 524 442T516 450Q484 433 442 398T352
316T259 221T173 129T104 57Q128 50 154 49T206 48Q227 48 247 49T288 52Q317 55 335 59T370 75T405 106Q411 112 415 112Q422 112 422 107Q422 105 421 104T417 100Q406 89 396 71T375 35T350 5Q337 -6 319 -9T284 -12Q231 -12 180 2T77 29Q70 24 57 14T30 -4T9
-12Z" />
<glyph unicode="[" glyph-name="bracketleft" horiz-adv-x="390" d="M120 -12Q114 -12 96 -12T57 -10T21 -3T6 13Q6 45 22 94T64 200T121 311T184 406T242 466Q253 474 277 476T315 479Q320 479 336 478T367 475T382 465V456Q378 455 372 455Q360 455 348 456T324
458Q316 458 306 458T288 453Q279 449 267 436T247 414Q229 393 205 357T155 278T107 190T72 106T58 40Q58 18 74 11T109 3Q122 3 134 4T160 6Q164 6 171 5T179 -2Q179 -6 168 -8T144 -11T120 -12Z" />
<glyph unicode="\" glyph-name="backslash" horiz-adv-x="445" d="M410 -69Q403 -69 397 -63Q393 -58 397 -57Q405 -53 405 -42Q405 -29 395 -10T372 28T346 62T331 81Q299 125 259 174T177 272T98 363T35 436Q30 442 30 449Q30 455 33 456Q35 458 43 460T59 463T69
465Q74 465 95 442T147 379T214 293T286 196T350 104Q353 100 365 83T392 44T417 -2T428 -43Q428 -63 411 -69H410Z" />
<glyph unicode="]" glyph-name="bracketright" horiz-adv-x="371" d="M79 -13Q74 -13 58 -13T27 -9T12 1L13 9Q16 10 22 10Q34 10 46 9T70 7Q78 7 89 7T107 12Q116 17 128 30T148 52Q165 73 189 109T239 188T287 275T322 359T336 425Q336 448 320 455T285 463Q272
463 260 461T235 459Q231 459 224 460T216 468Q216 473 229 475T258 477T277 477Q285 477 302 477T340 475T374 468T388 453Q388 422 372 372T330 266T273 155T210 60T153 0Q143 -7 118 -10T79 -13Z" />
<glyph unicode="^" glyph-name="asciicircum" horiz-adv-x="375" d="M176 327Q170 327 170 330Q170 334 175 339Q183 344 195 350T216 362Q236 374 255 386T294 411Q299 413 304 416T314 419Q322 419 327 413T337 401Q341 396 349 383T365 356T372 336Q372 335
369 332T364 329Q361 329 348 342T321 369T305 388Q300 384 281 375T240 354T199 335T176 327Z" />
<glyph unicode="_" glyph-name="underscore" horiz-adv-x="537" d="M-11 -43Q-15 -43 -15 -38Q-15 -32 -11 -25T0 -17H541Q547 -17 547 -23Q547 -28 544 -33T537 -43H-11Z" />
<glyph unicode="`" glyph-name="grave" horiz-adv-x="125" d="M161 321Q145 334 118 346T64 367T19 381Q0 386 0 394Q0 399 7 406T25 414Q29 414 35 412Q75 396 111 372T164 331Q166 329 166 324T161 321Z" />
<glyph unicode="a" glyph-name="a" horiz-adv-x="341" d="M218 -4Q199 -4 186 8T173 40Q173 61 184 87T205 132Q193 117 174 95T133 50T88 14T44 -1Q22 -1 13 15T3 50Q3 62 6 74Q13 100 33 128T79 183T134 233T184 271Q194 278 205 283T230 289Q246 289 259 281T284
261Q287 266 288 269T296 272Q300 272 314 269T342 262T355 254Q355 253 354 253Q347 243 339 233T323 213Q298 179 275 142T234 65Q232 59 230 53T228 39Q228 21 246 21Q260 21 280 36T321 73T362 117T394 155T409 170Q412 170 412 166Q412 164 397 147T361 106T323
65T301 41Q285 26 263 11T218 -4ZM55 22Q63 22 71 26T86 34Q125 57 160 94T225 173T279 253Q277 254 272 254Q262 254 251 247Q194 218 143 169T57 63Q53 57 50 49T46 32Q46 22 55 22Z" />
<glyph unicode="b" glyph-name="b" horiz-adv-x="281" d="M63 -5Q55 -5 40 -1T12 11T0 29Q0 45 14 78T52 155T103 245T158 335T209 410T244 456Q245 458 247 458T250 457Q254 457 268 455T295 448T308 438Q308 436 307 435T303 432Q289 416 276 398T249 362Q171
256 105 143Q128 175 153 204T209 259Q218 267 235 280T264 293Q274 293 287 286T310 267T321 246Q321 238 319 231T312 215Q290 167 252 125T168 50T71 -3Q69 -4 67 -4T63 -5ZM62 33Q64 33 67 34T72 36Q136 70 187 124T270 242Q272 246 273 250T275 259Q275 266
268 266Q251 266 225 248T169 202T114 143T72 84T56 40Q56 33 62 33Z" />
<glyph unicode="c" glyph-name="c" horiz-adv-x="233" d="M90 -1Q63 -1 37 13T11 59Q11 63 11 66T13 74Q21 109 44 144T99 211T166 268T233 308Q238 310 245 313T256 317Q264 317 272 305T287 278T293 256Q293 250 291 248T284 243Q230 221 209 169Q208 166 205
166Q201 166 201 170Q201 182 209 200T230 234T250 257Q193 230 145 187T73 84Q65 65 65 46Q65 33 71 24T92 14Q101 14 110 17T128 25Q176 49 214 82T288 155Q290 157 291 157Q292 157 292 155Q292 152 291 149T287 143Q261 110 225 75T154 17Q126 -1 90 -1Z" />
<glyph unicode="d" glyph-name="d" horiz-adv-x="329" d="M207 -4Q190 -4 176 6T161 35Q161 47 167 66T183 103T197 133Q177 105 154 79T104 30Q94 23 78 10T48 -3Q28 -3 12 12T-5 48Q-5 62 1 74Q17 107 45 143T110 214T184 275T256 315Q262 317 266 317Q276 317
280 307T289 290Q308 319 327 347T365 403Q374 416 383 430T403 456Q404 458 406 458T409 457Q413 457 427 454T455 448T468 440Q468 439 467 438Q457 424 446 410T424 382Q391 337 360 290T297 195Q278 164 259 132T224 65Q217 51 217 39Q217 21 234 21Q249 21
269 36T310 73T351 117T382 155T398 170Q401 170 401 166Q401 164 386 147T350 106T312 65T290 41Q274 26 252 11T207 -4ZM45 24Q53 24 63 28T79 37Q104 51 130 74T181 125T220 175Q234 196 246 218T272 262Q205 233 149 184T55 71Q51 64 45 52T38 31Q38 24 45
24Z" />
<glyph unicode="e" glyph-name="e" horiz-adv-x="233" d="M91 -1Q63 -1 37 13T11 59Q11 63 11 66T13 74Q21 108 42 141T94 203T158 254T223 289Q226 291 229 292T236 293Q245 293 251 284T260 262T263 243Q263 225 253 207T229 176Q235 176 241 176T253 175Q255
175 255 173Q255 172 253 171T249 169L219 166Q191 163 161 157T104 141Q91 123 78 96T65 46Q65 33 71 24T92 14Q101 14 110 17T128 25Q176 49 214 82T288 155Q290 157 291 157Q293 157 293 155Q293 152 291 149T287 143Q260 109 225 75T154 17Q126 -1 91 -1ZM129
171Q152 173 175 174T221 176Q227 184 231 197T236 221Q236 226 234 231T225 237H222Q210 233 192 221T156 195T129 171Z" />
<glyph unicode="f" glyph-name="f" horiz-adv-x="151" d="M-198 -158Q-217 -158 -234 -150T-257 -121L-247 -119Q-245 -134 -234 -139T-210 -144Q-164 -144 -128 -119T-65 -58T-18 15L107 249H69L76 259H113L162 351Q173 371 189 396T226 439T274 458Q321 458
327 412L320 409Q316 424 299 424Q288 424 275 411T250 382T232 357L175 259H228L221 249H169L18 -12Q-19 -76 -69 -117T-198 -158Z" />
<glyph unicode="g" glyph-name="g" horiz-adv-x="259" d="M-15 -160Q-37 -160 -56 -153T-83 -121L-74 -119Q-71 -133 -61 -138T-37 -144Q-13 -144 9 -133Q41 -118 72 -82T133 -1T188 87T230 162Q202 127 170 93T103 30Q90 20 73 10T37 0Q18 0 6 13T-6 46Q-6 54
-4 60T1 74Q22 120 61 166T148 251T242 308Q247 310 252 312T264 314Q278 314 286 300T295 273Q302 281 314 293T339 307V297Q326 296 312 279T285 234T260 178T240 126T227 91Q211 48 192 4T144 -78T78 -137T-15 -160ZM47 23Q55 23 67 29T92 44T110 57Q145 83
179 118T244 194T294 272Q228 247 171 203T73 100Q68 93 60 80T46 54T39 31Q39 23 47 23Z" />
<glyph unicode="h" glyph-name="h" horiz-adv-x="303" d="M181 -4Q163 -4 149 6T135 36Q135 51 146 79T174 138T207 197T232 240Q210 230 184 205T131 149T83 86T48 34Q41 21 30 11T1 0H-7Q-6 15 6 46T38 119T81 205T128 292T170 366T199 414Q209 429 219 443T250
458Q257 458 272 454T300 445T316 433Q297 426 270 395T211 319T150 227T97 140T64 79Q64 78 64 78T63 76Q63 75 63 75T64 75Q65 75 67 78T70 82Q85 100 109 132T163 197T221 253T276 276Q287 276 298 271T310 253Q310 245 303 236Q298 228 292 220T279 204Q255
172 234 138T197 65Q195 59 193 53T190 39Q190 21 208 21Q223 21 242 36T283 73T323 117T355 155T371 170Q374 170 374 166Q374 164 359 147T324 106T286 65T263 41Q247 25 226 11T181 -4Z" />
<glyph unicode="i" glyph-name="i" horiz-adv-x="170" d="M194 301Q184 301 178 308T171 326Q171 343 186 358T219 374Q229 374 234 368T240 351Q240 335 226 318T194 301ZM48 -4Q29 -4 17 7T4 37Q4 52 14 78T39 134T68 189T92 228Q100 241 110 254T137 267Q142
267 155 263T181 254T194 242Q183 238 166 220T130 176T95 124T68 74T57 39Q57 21 75 21Q89 21 109 36T150 73T191 117T223 155T238 170Q242 170 242 166Q242 164 232 152T207 123T175 88T146 57T130 41Q114 26 93 11T48 -4Z" />
<glyph unicode="j" glyph-name="j" horiz-adv-x="101" d="M179 301Q168 301 162 308T155 326Q155 343 170 358T203 374Q213 374 219 368T225 351Q225 335 211 318T179 301ZM-181 -160Q-203 -160 -222 -153T-249 -121L-240 -119Q-237 -133 -227 -138T-203 -144Q-179
-144 -157 -133Q-128 -119 -99 -88T-42 -16T11 69T58 153T96 221Q101 230 110 244T132 269T154 279V270Q140 269 125 246T98 191T76 131T62 91Q47 48 27 4T-21 -78T-88 -137T-181 -160Z" />
<glyph unicode="k" glyph-name="k" horiz-adv-x="314" d="M169 -9Q144 -9 133 9T122 50Q122 77 134 103T166 153T203 195Q180 184 152 159T100 104T60 52Q52 39 40 21T11 0H-7Q-6 15 6 46T38 119T81 205T128 292T170 366T199 414Q209 429 219 443T250 458Q256
458 271 454T301 445T316 433Q299 427 275 401T225 338T173 262T128 191T98 141Q97 139 91 128T78 105T72 93Q72 92 73 92Q75 92 78 95Q126 155 186 204T323 272Q326 265 326 257Q326 237 312 222T278 199T240 191Q225 191 215 198Q193 176 179 146T165 83Q165
65 173 47T203 28Q221 28 242 40T285 71T325 109T355 140T368 153Q372 153 372 149Q372 149 372 149T371 147Q360 132 338 110T290 64T240 22T197 -3Q184 -9 169 -9Z" />
<glyph unicode="l" glyph-name="l" horiz-adv-x="180" d="M60 -4Q38 -4 27 10T15 46Q15 62 32 99T75 182T129 275T181 359T217 414Q227 429 237 443T267 458Q273 458 288 454T318 445T334 433Q315 426 288 395T229 319T168 227T115 140T82 79Q78 70 74 59T69 37Q69
21 86 21Q101 21 121 36T162 73T202 117T234 155T249 170Q253 170 253 166Q253 165 245 155T227 134T215 121Q202 106 184 85T146 44T103 10T60 -4Z" />
<glyph unicode="m" glyph-name="m" horiz-adv-x="463" d="M331 -4Q312 -4 303 7T293 36Q293 54 304 81T331 139T362 197T388 240Q362 228 340 208T297 168Q274 144 257 117T225 61Q221 52 218 44T209 27Q205 17 188 8T160 -1Q149 -1 149 11Q149 29 158 56T180
114T207 171T230 216T239 236Q239 238 237 238Q234 238 230 236T224 231Q194 210 162 174T101 99T53 28Q42 9 28 5T-7 0Q0 16 8 31T23 60Q35 84 45 107T65 155Q73 176 82 204T91 255Q91 261 90 267T86 278Q83 281 83 281Q83 287 90 287Q96 287 111 280T139 264T153
246Q153 231 142 203T116 149T91 109Q90 108 89 106T87 102L88 101Q90 101 104 118T139 162T187 214T239 258T287 276Q298 276 312 271T326 251Q326 247 324 244T320 236Q299 208 279 180T242 120Q254 136 278 162T330 214T387 258T436 276Q447 276 461 271T475
251Q475 247 473 244T469 236Q458 221 439 196T399 140T364 83T349 39Q349 21 367 21Q382 21 402 36T443 73T484 117T515 155T531 170Q534 170 534 166Q534 165 526 155T508 134T496 121Q483 106 464 85T422 43T376 10T331 -4Z" />
<glyph unicode="n" glyph-name="n" horiz-adv-x="320" d="M201 -3Q181 -3 171 10T161 43Q161 69 173 100T200 160T227 209T239 236Q239 238 237 238Q234 238 230 236T224 231Q194 211 162 175T101 100T53 28Q42 9 28 5T-7 0Q0 16 8 31T23 60Q35 84 45 107T65 155Q73
176 82 204T91 255Q91 261 90 267T86 278Q83 281 83 281Q83 287 90 287Q96 287 111 280T139 264T153 246Q153 231 142 203T116 149T91 109Q90 108 89 106T87 102L88 101Q90 101 104 118T139 162T187 214T239 258T287 276Q298 276 312 271T326 251Q326 247 324 244T320
236Q289 194 262 155T214 65Q212 59 210 53T207 39Q207 21 225 21Q240 21 260 36T301 73T342 117T374 155T389 170Q392 170 392 166Q392 165 384 155T366 134T354 121Q337 102 316 77T270 30T221 0Q212 -3 201 -3Z" />
<glyph unicode="o" glyph-name="o" horiz-adv-x="294" d="M92 -4Q63 -4 39 14T14 63Q14 86 29 118T68 183T123 244T182 290T236 308Q244 308 253 306T267 295Q287 296 295 284T303 253Q303 226 288 192T251 127T213 76L219 75Q248 74 270 87T312 120T350 158L352
160Q355 160 355 155Q355 153 354 152Q340 132 318 112T270 78T218 64Q214 64 211 64T203 65Q190 51 172 35T134 8T92 -4ZM98 11Q124 11 148 33T189 73Q183 76 174 83T165 99Q165 113 184 125T226 148T259 163Q269 179 277 200T285 241Q285 252 281 260T263 268Q252
268 240 263T219 253Q168 226 127 179T69 75Q68 69 67 63T65 50Q65 34 73 23T98 11Z" />
<glyph unicode="p" glyph-name="p" horiz-adv-x="299" d="M-151 -160Q-173 -160 -192 -153T-219 -121L-210 -119Q-207 -133 -197 -138T-173 -144Q-137 -144 -102 -117T-33 -45T30 49T82 144T121 219Q99 195 78 170T33 120Q33 118 31 118Q27 118 27 122Q27 124
35 134T53 155T65 168L145 266Q146 268 150 277T155 288Q160 300 169 321T192 358T221 375Q236 375 236 363Q236 356 232 348T223 333Q213 320 202 308T179 282Q175 278 170 273T161 263Q155 254 151 241T141 217Q128 186 116 155T92 91L86 75Q108 109 139 152T206
233T278 290Q281 292 284 292T290 292Q310 292 327 278T345 242Q345 235 343 229T338 215Q318 172 281 130T200 53T110 1Q105 0 99 -2T87 -5Q80 -5 72 -2T58 6Q38 -39 10 -76T-58 -137T-151 -160ZM68 22Q133 51 187 99T278 209Q283 217 291 232T299 258Q299 267
291 267Q282 267 267 259T239 239T218 222Q192 199 163 165T109 93T68 22Z" />
<glyph unicode="q" glyph-name="q" horiz-adv-x="299" d="M100 -200Q92 -200 77 -196T48 -184T35 -166Q35 -151 45 -125T70 -69T103 -8T136 48T159 86Q152 78 138 63T107 33T75 8T48 -3Q28 -3 12 12T-5 48Q-5 62 1 74Q16 106 42 139T100 204T167 262T232 303Q237
305 252 311T270 318Q272 318 278 309T289 289T295 275Q295 272 295 272Q300 271 312 268T336 261T347 253Q347 251 346 251T343 248L339 242Q331 230 322 219T304 197Q268 148 233 99T165 -2Q145 -33 126 -66T92 -134Q90 -138 88 -144T86 -156Q86 -162 90 -162Q95
-162 104 -154T117 -141Q136 -117 153 -92T188 -43Q223 5 261 51T341 140Q341 141 343 141Q346 141 346 138Q346 136 345 136Q329 114 311 94T275 52Q237 3 203 -50T137 -160Q131 -171 124 -185T100 -200ZM45 24Q53 24 62 28T79 37Q99 48 121 66T163 104T196 143Q207
157 216 172T235 202Q243 215 252 227T270 253Q272 255 273 258T276 264Q202 232 140 177T43 48Q42 44 40 40T38 31Q38 24 45 24Z" />
<glyph unicode="r" glyph-name="r" horiz-adv-x="266" d="M144 -4Q124 -4 112 8T99 40Q99 60 111 89T142 150T178 210T207 257Q200 254 190 254Q179 254 167 257T144 265Q141 260 130 244T103 206T71 164T44 131T28 117Q25 117 25 120Q25 122 28 125Q39 139 50
152T73 179Q90 200 105 223T132 271Q126 275 116 283T106 299Q106 310 119 320T148 339T172 351Q176 352 190 358T206 365Q210 365 210 361Q210 360 198 349T173 321T160 289Q160 275 172 269T196 263Q207 263 214 267Q217 272 222 272Q230 272 242 270T264 262T274
246Q274 239 270 233T261 221Q251 209 232 186T192 134T157 81T143 42Q143 32 150 26T167 19Q183 19 204 34T246 72T287 117T319 154T334 170Q338 170 338 166Q338 164 328 152T303 123T271 88T242 57T226 41Q210 26 189 11T144 -4Z" />
<glyph unicode="s" glyph-name="s" horiz-adv-x="178" d="M55 -37Q26 -37 13 -15T-1 34Q-1 36 -1 40T4 44Q7 44 8 41T10 35Q19 5 51 5Q68 5 79 16T90 45Q90 65 80 87T60 134T49 186Q49 208 56 225Q63 243 82 259T128 289T180 309T224 316Q245 316 252 306T259
276Q259 272 258 266T252 257Q230 250 205 238T171 202Q170 199 167 199Q162 199 162 204Q162 218 179 235T207 260Q178 252 150 238T103 200T84 142Q84 111 97 84T110 25Q110 0 97 -18T55 -37Z" />
<glyph unicode="t" glyph-name="t" horiz-adv-x="178" d="M56 -4Q38 -4 25 6T11 36Q11 53 23 82T53 144T88 205T115 249H76L82 259H121Q135 282 148 305T178 350Q187 363 197 374T225 386Q231 386 245 383T271 374T285 363Q270 358 251 338T214 295T188 259H234L228
249H181Q171 236 152 208T111 146T76 85T61 41Q61 21 83 21Q98 21 118 36T159 73T199 117T231 155T246 170Q249 170 249 166Q249 165 241 155T223 134T211 121Q198 106 181 85T142 44T99 10T56 -4Z" />
<glyph unicode="u" glyph-name="u" horiz-adv-x="305" d="M54 -4Q35 -4 23 10T11 43Q11 74 24 107T56 172T88 227T102 261Q102 266 99 267Q117 275 133 275Q143 275 158 271T173 253Q173 249 171 246T167 239Q137 197 110 155T63 65Q61 59 59 52T56 38Q56 21 73
21Q88 21 108 42T149 96T190 164T227 228T253 270Q254 272 259 272Q263 272 277 269T305 262T318 254Q318 253 317 253Q310 243 302 233T286 213Q261 179 238 142T197 65Q195 59 193 53T191 39Q191 21 209 21Q224 21 244 36T285 73T325 117T357 155T372 170Q376
170 376 166Q376 165 368 155T350 134T338 121Q320 100 294 71T239 20T179 -3Q138 -3 138 39Q138 56 144 71Q135 57 121 40T90 9T54 -4Z" />
<glyph unicode="v" glyph-name="v" horiz-adv-x="239" d="M83 -6Q53 -6 40 12T27 58Q27 78 31 98T42 138Q44 146 51 165T68 207T85 246T99 269Q101 270 105 270Q110 270 124 268T150 261T163 252Q163 251 162 251T160 248L147 227Q130 199 115 170T89 108Q83 92
77 70T71 31Q71 24 73 16T86 8Q99 8 118 23T156 56T183 83Q203 104 226 136T265 202T281 267Q281 282 276 292T270 307Q270 311 276 311Q287 311 294 302T305 280T309 258Q309 244 305 233Q300 217 282 188T237 126T181 62T126 13T83 -6Z" />
<glyph unicode="w" glyph-name="w" horiz-adv-x="417" d="M209 -6Q183 -6 171 13T158 56Q158 64 159 70T163 84Q153 69 135 48T96 12T54 -4Q35 -4 23 10T11 43Q11 74 24 107T56 172T88 227T102 261Q102 266 99 267Q117 275 133 275Q143 275 158 271T173 253Q173
249 172 246T168 239Q138 197 111 155T64 65Q62 59 59 52T56 38Q56 21 73 21Q85 21 100 33T131 64T159 99T178 127Q193 152 207 177T237 227Q244 238 250 249T263 270Q265 272 269 272Q274 272 288 269T315 262T328 254Q328 253 315 237T284 197T246 143T214 86T201
36Q201 26 205 17T221 8Q232 8 243 14T262 27Q285 45 311 73T359 134T396 202T411 267Q411 281 406 292T400 307Q400 311 407 311Q417 311 424 302T435 280T439 258Q439 232 421 198T376 128T321 63T272 19Q259 9 243 2T209 -6Z" />
<glyph unicode="x" glyph-name="x" horiz-adv-x="271" d="M-4 -126Q-21 -126 -36 -117T-52 -89Q-52 -69 -36 -41T3 18T48 73T84 113Q82 129 81 144T80 176Q78 173 70 163T53 143T42 133Q39 133 39 136Q39 137 44 144T56 158T64 169Q75 187 77 200T80 226T85 255Q86
259 100 265T129 275T149 280Q151 280 151 278Q146 250 142 222T136 166Q147 176 172 198T227 244T283 286T325 303Q332 303 333 297L331 296Q312 293 285 275T228 232T174 184T136 146V142Q136 127 138 105T150 65T181 47Q202 47 227 64T276 103T315 143T332 160Q335
160 335 156Q335 155 335 155T334 154Q321 138 299 115T252 69T200 31T153 15Q133 15 120 27T99 58T88 93Q76 78 58 55T22 6T-8 -46T-20 -92Q-20 -103 -16 -110T0 -117Q3 -117 3 -121Q3 -126 -4 -126Z" />
<glyph unicode="y" glyph-name="y" horiz-adv-x="257" d="M-21 -158Q-40 -158 -57 -150T-81 -121L-72 -119Q-68 -133 -58 -138T-34 -144Q-9 -144 11 -133Q42 -118 72 -82T129 -1T179 88T217 162Q209 150 192 126T153 75T113 27T81 1Q69 -4 61 -4Q42 -4 30 10T18
43Q18 73 31 107T63 172T95 227T109 261Q109 266 106 267Q124 275 139 275Q149 275 164 271T180 253Q180 249 178 246T174 239Q145 198 118 156T70 65Q68 59 66 53T63 38Q63 21 80 21Q91 21 109 39T150 87T193 147T230 204T254 241Q259 250 269 265T292 294T316
307Q325 307 332 300T339 284Q339 272 327 272Q302 272 286 260T259 225Q239 180 225 129T195 26T154 -66T87 -133T-21 -158Z" />
<glyph unicode="z" glyph-name="z" horiz-adv-x="268" d="M168 -17Q155 -17 134 -12T93 1T61 17Q51 10 37 -1T9 -13Q1 -13 -5 -9T-12 5Q-12 24 6 41T43 58Q52 58 61 58T79 53Q90 64 112 88T162 140T218 195T268 239T303 258Q300 259 294 259Q268 259 241 244T185
214T130 199Q124 199 118 201T107 208Q104 204 95 192T73 166T52 142T41 132Q39 132 37 135Q38 136 38 136T38 137Q43 144 49 150T60 163Q71 177 82 191T104 218Q104 227 113 246T133 281T149 297Q152 297 152 294Q152 292 151 289T150 283Q150 270 157 268T176
265Q200 265 223 271T271 277Q286 277 301 273T323 253Q325 251 325 248Q325 244 320 244Q316 244 313 246T307 251Q296 251 275 234T227 190T175 135T128 83T96 49Q110 45 122 40T151 35Q183 35 214 54T269 98T310 142T328 161Q331 161 331 156Q331 154 323 144T303
122T283 99T270 85Q261 76 254 66T239 45Q226 23 213 3T168 -17Z" />
<glyph unicode="{" glyph-name="braceleft" horiz-adv-x="399" d="M181 -54Q158 -54 135 -53T96 -41T80 -5Q80 -2 80 2T81 10Q88 50 107 87T134 164Q135 167 135 173Q135 192 125 202T100 217T74 222L76 234Q125 239 151 255T197 320Q205 339 211 360T224 400Q238
438 266 466T356 499H396Q408 499 408 492Q408 485 395 485Q360 485 340 472T307 434T284 379Q279 364 274 349T260 318Q251 298 227 279T174 246T124 227Q141 224 159 215T188 191T196 161Q189 121 171 84T145 7Q144 3 144 -1T143 -8Q143 -31 158 -35T192 -42Q201
-43 201 -48Q201 -52 192 -54H181Z" />
<glyph unicode="|" glyph-name="bar" horiz-adv-x="162" d="M94 -3Q87 -3 78 2T70 13Q86 141 91 272T97 534Q97 536 103 537T117 539Q125 539 132 538T139 535Q139 408 128 271T105 7Q105 -3 94 -3Z" />
<glyph unicode="}" glyph-name="braceright" horiz-adv-x="371" d="M15 -54Q4 -54 4 -47Q4 -40 16 -40Q52 -40 72 -27T104 11T128 66Q133 81 139 96T152 127Q162 147 186 166T238 199T288 218Q271 221 253 230T224 254T216 284Q223 324 241 361T267 438Q268 443
268 446T269 453Q269 476 255 480T220 487Q211 489 211 493Q211 498 220 499H231Q254 499 277 498T317 487T333 451Q333 447 333 444T331 435Q324 395 305 358T278 280Q277 276 277 270Q277 252 287 242T312 228T338 223L335 210Q287 206 261 190T215 125Q208 106
202 86T188 45Q174 8 146 -21T55 -54H15Z" />
<glyph unicode="~" glyph-name="asciitilde" horiz-adv-x="235" d="M53 348Q52 348 51 349Q47 359 56 375T87 392Q98 392 118 389T157 384T186 382Q197 382 203 390T213 399Q215 399 215 397Q217 392 213 382T198 364T174 355Q163 355 144 358T105 366T74 370Q65
370 62 365T58 354T53 348Z" />
<glyph unicode="&#xa0;" glyph-name="uni00A0" horiz-adv-x="199" />
<glyph unicode="&#xa1;" glyph-name="exclamdown" horiz-adv-x="150" d="M110 188Q102 188 102 194Q102 195 102 195T103 196Q112 208 114 218V224Q114 230 115 236T121 242Q127 242 140 235T154 219Q154 214 145 207T126 194T110 188ZM-41 -122Q-44 -122 -56
-121T-80 -118T-92 -112Q-92 -111 -92 -111T-91 -109Q-45 -64 -3 -11T73 96Q80 108 86 120T100 143Q102 147 105 151T113 156Q116 156 116 153T117 148Q117 136 104 105T71 36T28 -39T-13 -98T-41 -122Z" />
<glyph unicode="&#xa2;" glyph-name="cent" horiz-adv-x="362" d="M35 36Q28 36 28 42Q28 51 40 72T69 119T101 166T124 197Q98 211 98 241Q98 252 103 267Q114 299 137 335T192 406T258 467T324 507Q329 509 333 510T343 510Q347 517 359 533T384 565T404 580Q409
580 409 577Q409 576 408 575T407 573Q393 557 380 541T356 506Q367 498 367 482Q367 476 362 458T349 425T335 409Q329 409 329 415Q329 421 338 434T348 461Q348 465 346 465Q345 465 342 463T337 461Q276 430 228 385T151 277Q147 266 143 253T138 228Q138 220
141 213T155 206Q163 206 170 209T185 217Q228 243 263 277T330 348Q332 350 333 350L334 349Q334 345 332 342T327 336Q314 319 294 295T249 247T199 208T150 192Q120 158 90 120T41 41Q39 36 35 36Z" />
<glyph unicode="&#xa3;" glyph-name="sterling" horiz-adv-x="451" d="M159 -23Q143 -23 121 -21T77 -13T41 7T27 43Q27 60 37 86T61 142T89 198T112 239Q87 236 61 236Q52 236 41 238T30 254Q30 262 37 269T53 277H135Q157 314 185 357T247 440T323 505T413 531Q457
531 479 505T502 435Q502 423 500 410T490 385L482 391Q483 396 483 400T484 408Q484 437 469 460T422 484Q389 484 358 462T299 406T248 337T208 277H320L314 264Q283 257 252 254T189 247Q180 234 164 207T130 148T100 90T88 49Q88 29 103 19T137 6T172 3Q212
3 260 12T355 35T439 64L397 7Q341 -6 279 -14T159 -23Z" />
<glyph unicode="&#xa4;" glyph-name="currency" horiz-adv-x="295" d="M27 219L13 234L64 273Q57 283 55 294T52 316Q52 339 62 358Q50 368 38 377T12 397L29 411Q43 402 56 393T83 376Q104 385 128 385Q152 385 174 376Q188 385 202 394T231 411L244 396L194
358Q205 340 205 316Q205 305 203 294T193 273L244 234L231 219Q216 228 201 237T171 256Q161 252 150 250T127 248Q105 248 85 255L27 219ZM128 273Q175 273 175 316Q175 359 128 359Q81 359 81 316Q81 273 128 273Z" />
<glyph unicode="&#xa5;" glyph-name="yen" horiz-adv-x="523" d="M189 -5Q208 28 224 62T253 132Q234 131 216 129T178 127Q171 127 161 129T150 141Q150 148 157 153T170 158H261Q267 178 272 197T279 238Q263 237 246 235T211 233Q204 233 194 235T183 247Q183
254 190 259T204 264H282Q283 269 283 274T283 286Q283 330 268 373T221 447Q212 455 201 458T179 461Q156 461 135 451T108 440Q107 440 107 441Q107 446 119 456T146 475T164 487Q179 497 193 505T227 513Q259 513 280 487T315 424T334 348T340 286Q340 281 340
275T339 264Q352 284 374 315T425 382T485 449T548 501T606 521Q630 521 647 502T674 463L675 458Q675 453 671 453Q667 453 656 465T618 478Q611 478 604 476T589 471Q516 440 460 385T363 264H442L436 254Q415 250 394 248T351 244Q339 223 329 202T307 157H408L403
148Q377 144 351 141T298 136Q290 117 283 99T269 60Q265 50 262 41T255 22Q252 13 240 8T213 -1T189 -5Z" />
<glyph unicode="&#xa6;" glyph-name="brokenbar" horiz-adv-x="316" d="M122 404V707H181V404H122ZM122 0V303H181V0H122Z" />
<glyph unicode="&#xa7;" glyph-name="section" horiz-adv-x="309" d="M66 -120Q7 -120 -21 -80T-52 13H-45Q-37 -24 -12 -51T55 -79Q85 -79 107 -61T142 -16T155 39Q155 75 139 101T100 151T62 198T45 252Q45 280 59 304T95 350T137 386Q145 410 170 432T229 473T302
506T374 527T432 535Q468 535 478 523T498 479Q499 476 495 475T488 474Q473 471 451 463T407 442T368 416T347 385L337 386Q343 413 365 438T409 479Q385 477 347 464T271 429T207 380T181 324Q181 296 196 270T233 218T269 163T285 98Q285 58 261 28T199 -15Q194
-47 174 -70T126 -107T66 -120ZM195 37Q216 55 227 81T239 135Q239 165 227 188T198 232T164 271T137 312T131 361Q107 344 95 318T82 263Q82 239 96 212T131 154T169 94T195 37Z" />
<glyph unicode="&#xa8;" glyph-name="dieresis" horiz-adv-x="201" d="M159 319Q153 319 143 324T123 336T114 350Q114 358 126 367T152 384T173 391Q183 391 183 384Q183 381 182 380Q175 373 173 367T168 352Q166 346 166 333T159 319ZM45 319Q39 319 29 324T9
336T0 350Q0 358 12 367T38 384T59 391Q69 391 69 384Q69 381 68 380Q61 373 59 367T54 352Q52 346 52 333T45 319Z" />
<glyph unicode="&#xa9;" glyph-name="copyright" horiz-adv-x="633" d="M224 18Q162 22 119 57T76 159Q76 182 81 204T94 247Q113 294 154 335T246 406T343 453Q371 462 399 468T457 476Q465 477 472 477T487 477Q510 477 538 473T592 458T634 428T651 378Q651
362 645 348T638 328Q638 325 639 323T642 318L645 308Q647 301 648 293T649 277Q649 234 626 198T572 134Q504 74 425 46T256 18H224ZM249 31Q323 31 393 59T519 136Q541 155 564 188T603 258T619 324Q619 330 618 336T616 347Q616 349 621 350T627 352Q628 354
628 362T629 372Q629 388 623 400T607 424Q585 448 553 456T489 464Q481 464 472 464T455 462Q382 456 315 421Q268 396 223 352T148 253T118 142Q118 81 155 56T249 31ZM295 95Q268 95 242 109T216 155Q216 160 216 163T218 171Q226 206 252 244T314 318T391 379T465
414Q472 412 479 400T492 373T498 352Q498 346 496 344T489 339Q485 338 481 337T472 333Q451 323 435 306T413 266Q411 262 409 262Q406 262 406 266Q406 268 407 273T410 279Q416 299 427 319T455 354Q398 327 350 284T278 180Q270 161 270 143Q270 130 276 120T296
110Q306 110 315 113T333 121Q380 145 418 179T493 252Q495 254 496 254Q497 254 497 251Q497 248 496 245T492 239Q466 207 430 172T359 113Q331 95 295 95Z" />
<glyph unicode="&#xaa;" glyph-name="ordfeminine" horiz-adv-x="333" d="M184 282Q171 282 163 290T154 315Q154 331 162 351T176 384Q165 369 147 345T107 303T67 284Q52 284 46 296T39 322Q39 327 39 331T41 340Q47 367 68 395T116 448T161 488Q169 493 176
497T192 501Q203 501 212 495T229 480Q231 484 232 486T237 489Q240 489 249 487T268 481T277 475Q277 474 276 474L255 444Q238 419 222 391T195 333Q194 329 193 324T191 314Q191 300 203 300Q215 300 233 317T268 356T298 395T313 412Q315 412 315 409Q315 408
305 395T281 364T255 333T240 315Q230 304 215 293T184 282ZM74 301Q79 301 85 304T95 310Q122 327 145 354T188 414T226 474Q224 475 221 475Q214 475 207 470Q168 448 134 411T76 332Q73 328 71 321T68 309Q68 301 74 301Z" />
<glyph unicode="&#xab;" glyph-name="guillemotleft" horiz-adv-x="401" d="M336 44Q335 44 334 47T331 51Q313 91 286 124T228 189Q226 191 226 192Q226 193 226 193T227 195Q228 200 241 215T274 250T314 289T350 324T373 345Q381 353 389 362T407 378Q412 383
420 383Q426 383 426 378Q426 374 413 358T380 319T340 275T303 235T280 212Q285 202 295 182T317 139T337 97T345 68Q345 66 342 55T336 44ZM196 44Q195 44 194 47T191 51Q173 91 146 124T88 189Q86 191 86 192Q86 193 86 193T87 195Q88 200 101 215T134 250T174
289T210 324T233 345Q241 353 249 362T267 378Q272 383 280 383Q286 383 286 378Q286 374 273 358T240 319T200 275T163 235T140 212Q145 202 155 182T177 139T197 97T205 68Q205 66 202 55T196 44Z" />
<glyph unicode="&#xac;" glyph-name="logicalnot" horiz-adv-x="411" d="M333 56V142H8V173Q97 173 186 173T364 174V56H333Z" />
<glyph unicode="&#xad;" glyph-name="uni00AD" horiz-adv-x="287" d="M114 148Q107 148 99 150T91 162Q91 168 96 173T108 179H269Q270 179 272 179T275 177Q275 170 254 165T204 155T149 150T114 148Z" />
<glyph unicode="&#xae;" glyph-name="registered" horiz-adv-x="655" d="M224 18Q162 22 119 57T76 159Q76 182 81 204T94 247Q113 294 154 335T246 406T343 453Q371 462 399 468T457 476Q465 477 472 477T487 477Q510 477 538 473T592 458T634 428T651 378Q651
362 645 348T638 328Q638 325 639 323T642 318L645 308Q647 301 648 293T649 277Q649 234 626 198T572 134Q504 74 425 46T256 18H224ZM249 31Q291 31 332 40T412 67Q393 73 368 84T320 110T282 146T267 190Q267 198 268 201Q266 203 266 207Q266 218 275 224T294
231Q332 237 368 250T437 282Q446 287 461 297T489 321T502 346Q502 357 492 360T473 364Q445 364 416 350T365 319Q310 277 259 220T185 97Q184 93 183 89T176 84Q172 84 171 88T169 96Q169 108 182 141T216 216T259 300T301 373T329 414Q330 415 332 415T336
415Q340 415 353 414T377 410T389 405Q389 404 387 402Q354 364 325 321T265 237Q283 258 312 287T374 343T442 389T505 407Q519 407 536 401T554 376Q554 358 538 341T508 314Q465 281 415 260T315 217Q314 215 314 212T314 207Q314 179 333 153T380 107T430 76Q479
101 519 136Q541 155 564 188T603 258T619 324Q619 330 618 336T616 347Q616 349 621 350T627 352Q628 354 628 362T629 372Q629 387 623 400T607 424Q585 448 553 456T489 464Q481 464 472 464T455 462Q389 456 331 429Q293 411 255 381T186 313T137 231T118 142Q118
81 155 56T249 31Z" />
<glyph unicode="&#xaf;" glyph-name="overscore" horiz-adv-x="184" d="M23 336Q16 336 8 338T0 349Q0 355 5 360T17 366L178 367Q179 367 181 367T184 364Q184 357 163 352T113 343T58 338T23 336Z" />
<glyph unicode="&#xb0;" glyph-name="degree" horiz-adv-x="312" d="M153 434Q130 434 116 449T102 487Q102 509 114 530T146 564T188 578Q211 578 225 563T239 524Q239 502 227 482T196 448T153 434ZM153 453Q178 453 196 473T214 518Q214 532 207 542T184 552Q160
552 142 532T124 488Q124 475 131 464T153 453Z" />
<glyph unicode="&#xb1;" glyph-name="plusminus" horiz-adv-x="361" d="M166 63Q164 63 164 66Q164 68 172 85T191 124T212 166T223 189Q199 188 175 187T126 185Q119 185 111 187T103 199Q103 205 108 210T120 216H237L283 312Q285 315 290 318T300 321Q313 321
313 308Q313 304 307 291T293 262T277 234T267 216H388Q389 216 392 216T395 213Q395 206 376 202T330 195T281 191T253 190Q249 183 239 163T215 120T188 80T166 63ZM94 6Q87 6 79 8T71 19Q71 25 76 30T88 36L249 37Q250 37 252 37T255 34Q255 27 234 22T184 13T129
8T94 6Z" />
<glyph unicode="&#xb2;" glyph-name="uni00B2" horiz-adv-x="431" d="M199 396Q195 396 199 405Q203 413 168 413Q158 413 147 413T123 411Q94 409 68 406T38 403Q34 403 34 412Q34 416 34 419T35 424Q82 449 135 482T235 556Q268 585 294 615Q301 623 301 630Q301
640 284 640Q266 640 237 631T183 608T154 575Q157 571 155 568T149 568Q145 572 141 577T136 589Q136 603 154 614T199 633T251 645T290 650Q304 650 313 646T323 628Q323 622 320 614Q315 599 295 577T247 534Q216 511 182 490T123 454T89 437Q105 441 127 443Q137
444 146 445T166 446Q182 446 195 443T212 433Q214 429 214 425Q214 416 209 406Q203 396 199 396Z" />
<glyph unicode="&#xb3;" glyph-name="uni00B3" horiz-adv-x="456" d="M101 387Q79 387 63 396T47 431Q47 444 51 457Q52 461 56 471T67 488Q70 490 73 491T74 487Q74 484 65 471T56 446Q56 433 69 428T101 422Q118 422 134 425T160 432Q204 451 228 470T252 504Q252
515 238 520T200 526Q185 526 168 524T134 516H133Q128 516 128 526T127 540Q148 540 176 548T229 572Q244 582 256 594T268 615Q268 624 250 624Q232 624 208 618T165 600T140 572Q142 568 140 565T134 566Q130 570 127 576T126 590Q132 604 152 613T199 628T245
633Q250 633 254 633T262 632Q284 628 284 612Q284 600 273 585T244 558T207 539Q226 538 246 530T267 501Q267 494 263 484T249 462Q233 443 211 427T171 403Q136 387 101 387Z" />
<glyph unicode="&#xb4;" glyph-name="acute" horiz-adv-x="125" d="M22 320Q19 320 19 324T21 331Q38 347 74 371T150 412Q156 414 160 414Q170 414 177 407T185 394Q185 386 166 381Q149 377 122 368T68 346T24 321Q23 320 23 320T22 320Z" />
<glyph unicode="&#xb5;" glyph-name="uni00B5" horiz-adv-x="305" d="M-183 -160Q-205 -160 -224 -153T-250 -121L-241 -119Q-238 -133 -228 -138T-204 -144Q-172 -144 -143 -125T-88 -77T-47 -26Q-18 16 6 62T52 155Q63 178 74 199T96 243Q98 247 100 251T102
261Q102 266 99 267Q117 275 133 275Q143 275 158 271T173 253Q173 249 172 246T168 239Q138 197 111 155T64 65Q61 59 59 53T56 38Q56 21 73 21Q88 21 108 42T149 96T191 164T227 228T253 270Q255 272 259 272Q264 272 278 269T305 262T318 254V253Q310 241 300
230T282 207Q258 174 236 139T198 65Q191 51 191 39Q191 21 209 21Q224 21 244 36T285 73T326 117T357 155T373 170Q376 170 376 166Q376 165 368 155T350 134T338 121Q320 100 295 71T239 20T179 -3Q138 -3 138 39Q138 56 144 71Q135 57 121 40T90 9T54 -4Q34
-4 21 12Q4 -37 -22 -76T-87 -137T-183 -160Z" />
<glyph unicode="&#xb6;" glyph-name="paragraph" horiz-adv-x="315" d="M45 -123Q37 -123 34 -107T31 -86Q31 -59 41 -23T67 52T99 127T128 189Q148 231 171 272T217 355Q246 408 276 460T338 564Q335 562 331 560T322 556Q293 550 262 547T202 540Q183 537 151
532T88 517T34 490T12 445Q12 424 25 400T57 353T97 309T132 275Q135 273 137 271T139 264Q139 251 124 238T97 225Q92 225 89 228Q65 249 35 281T-17 351T-39 422Q-39 456 -17 480T43 520T124 548T214 567T297 580T358 592Q368 588 383 582T399 562Q399 559 398
557T395 551Q378 523 360 496T323 442Q277 372 233 302T150 159Q139 139 122 106T89 34T61 -37T49 -91Q49 -105 53 -108T58 -114Q58 -119 54 -121T45 -123ZM102 -99Q96 -94 94 -86T92 -71Q92 -42 108 -1T147 86T193 173T232 241Q255 281 279 320T328 397Q355 439
382 481T437 563Q438 564 443 571T453 584T460 591Q462 591 471 587T489 575T498 560Q498 555 493 548Q474 521 453 494T412 440Q370 384 330 326T251 209Q241 193 224 165T187 102T150 34T121 -28T110 -74Q110 -84 113 -86T116 -91Q116 -95 112 -97T104 -99H102Z"
/>
<glyph unicode="&#xb7;" glyph-name="middot" horiz-adv-x="273" d="M136 230Q102 230 102 262V285Q102 299 111 308T136 317H158Q174 317 183 308T192 285V262Q192 230 158 230H136Z" />
<glyph unicode="&#xb8;" glyph-name="cedilla" horiz-adv-x="158" d="M40 -119Q21 -119 14 -114T6 -101Q20 -104 33 -104Q50 -104 61 -99T72 -77Q72 -66 67 -56T61 -26Q61 -11 73 -2T108 7Q110 7 113 6T116 0Q103 -1 97 -8T91 -26Q91 -42 98 -51T106 -81Q106 -97
87 -108T40 -119Z" />
<glyph unicode="&#xb9;" glyph-name="uni00B9" horiz-adv-x="328" d="M54 389Q50 394 50 404Q50 412 52 420T56 434Q65 461 82 490T119 545T153 590Q151 589 139 579T116 559T102 548Q99 545 96 545Q93 545 93 549Q93 553 98 558Q114 571 134 591T171 626T192
642Q194 642 202 640T216 634T218 626Q205 614 186 591T145 539T104 482T74 431T62 397Q62 379 54 389Z" />
<glyph unicode="&#xba;" glyph-name="ordmasculine" horiz-adv-x="333" d="M108 273Q85 273 66 287T46 326Q46 349 64 381T109 445T167 497T221 518Q226 518 233 516T245 508Q260 509 266 499T273 475Q273 454 261 428T233 377T202 336L207 335Q241 334 266 355T310
401Q311 401 311 401T312 402Q314 402 314 398Q314 397 313 396Q297 372 267 350T206 327Q199 327 195 328Q179 312 156 293T108 273ZM112 285Q133 285 152 302T184 334Q179 336 172 342T165 354Q165 365 180 375T213 393T239 405Q247 417 253 434T259 466Q259
487 242 487Q233 487 224 483T207 475Q167 454 135 417T89 335Q88 331 87 326T86 316Q86 303 92 294T112 285Z" />
<glyph unicode="&#xbb;" glyph-name="guillemotright" horiz-adv-x="401" d="M201 46Q195 46 195 51Q195 55 208 71T241 110T282 154T319 194T341 217Q336 228 326 248T304 290T284 332T276 361Q276 363 279 373T285 384Q287 384 288 382T290 378Q309 338 336
304T394 240Q395 239 395 236V234Q393 229 380 214T347 179T307 140T271 105T248 83Q240 76 232 67T215 51Q208 46 201 46ZM61 46Q55 46 55 51Q55 55 68 71T101 110T142 154T179 194T201 217Q196 228 186 248T164 290T144 332T136 361Q136 363 139 373T145 384Q147
384 148 382T150 378Q169 338 196 304T254 240Q255 239 255 236V234Q253 229 240 214T207 179T167 140T131 105T108 83Q100 76 92 67T75 51Q68 46 61 46Z" />
<glyph unicode="&#xbc;" glyph-name="onequarter" horiz-adv-x="722" d="M23 389Q19 394 19 404Q19 412 21 420T25 434Q34 461 51 490T88 545T122 590Q119 589 107 579T84 559T71 548Q68 545 65 545Q61 545 61 548Q61 552 67 558Q82 571 102 591T140 626T161 642Q163
642 171 640T184 634T186 626Q173 614 154 591T113 539T72 482T42 431T30 397Q30 387 28 386T23 389ZM53 -38Q49 -37 48 -32T47 -19Q47 7 61 39T93 104T123 157Q139 186 155 214T187 271Q191 278 204 301T237 355T276 421T315 484T346 531T362 549Q366 549 374
544T382 529Q382 524 380 520T376 513Q357 482 338 453T298 394Q255 330 213 264T130 129Q121 114 106 89T78 38T62 -7Q61 -10 61 -15Q61 -20 62 -22T64 -27Q64 -31 60 -35T53 -38ZM432 -42Q428 -37 427 -29T427 -13Q432 10 446 37T474 86Q465 88 445 85T401 76T362
67T346 63Q341 63 340 72T339 82Q340 92 358 108T402 144T455 180Q475 193 492 206T532 232Q533 232 533 232T534 233Q539 233 542 222T543 208Q494 180 452 150T363 89Q374 92 396 96T443 102T487 104Q490 108 501 125T527 162T552 200T564 222Q564 227 560 229T560
233Q566 236 572 236Q580 236 587 231T593 216Q593 211 581 193T554 154T526 118T513 100Q524 99 533 93T543 77Q543 68 530 59Q527 56 524 56Q522 56 522 58Q522 61 527 66Q531 71 531 76Q531 84 522 86T506 88Q501 82 490 64T466 26T445 -11Q439 -23 439 -31Q439
-33 439 -35T441 -39V-41Q441 -43 438 -43T432 -42Z" />
<glyph unicode="&#xbd;" glyph-name="onehalf" horiz-adv-x="639" d="M-19 389Q-23 394 -23 404Q-23 412 -21 420T-17 434Q-8 461 9 490T46 545T80 590Q78 589 66 579T43 559T29 548Q26 545 23 545Q20 545 20 549Q20 553 25 558Q40 571 60 591T98 626T119 642Q121
642 129 640T143 634T144 626Q132 614 113 591T72 539T31 482T0 431T-12 397V394Q-12 386 -14 386T-19 389ZM15 -38Q11 -37 10 -32T9 -19Q9 -16 9 -13T10 -7Q15 19 28 49T58 108T85 157L149 271Q153 278 166 301T199 355T238 421T277 484T308 531T324 549Q328 549
336 544T344 530Q344 519 338 513Q319 482 300 453T260 394Q217 330 175 264T92 129Q83 114 68 89T40 38T24 -7Q23 -10 23 -15Q23 -20 24 -22T26 -27Q26 -31 22 -35T15 -38ZM428 -9Q425 -9 428 0Q431 5 422 6T398 8Q388 8 377 8T353 6Q323 4 297 1T267 -2Q263 -2
263 5Q263 9 264 13T265 19Q312 44 365 77T465 151Q481 165 495 180T523 210Q530 218 530 225Q530 235 514 235Q500 235 480 230T438 216T402 195T383 170Q386 166 385 163T378 163Q374 166 370 171T366 183Q366 197 384 208T428 228T480 240T520 245Q534 245 543
240T552 223Q552 217 549 209Q545 194 525 172T477 129Q446 105 412 84T352 49T318 32Q334 36 356 38Q366 39 376 39T396 40Q412 40 424 38T441 28Q443 26 443 19Q443 15 442 10T438 1Q432 -9 428 -9Z" />
<glyph unicode="&#xbe;" glyph-name="threequarters" horiz-adv-x="782" d="M74 387Q52 387 36 396T20 431Q20 444 24 457Q25 461 29 471T41 488Q43 490 46 491T48 487Q47 484 38 471T29 447Q29 433 42 428T74 423Q91 423 107 426T133 432Q178 451 201 470T225
504Q225 515 211 520T173 526Q158 526 141 524T107 516H106Q101 516 101 526T100 540Q122 540 150 548T202 572Q217 582 229 594T242 615Q242 624 223 624Q205 624 181 618T138 600T113 572Q115 568 113 565T108 566Q104 570 100 576T99 590Q105 604 126 613T173
628T219 633Q240 633 248 627T257 611Q257 599 246 585T217 558T180 539Q199 538 219 530T240 501Q240 494 236 484T222 462Q206 443 184 427T144 403Q109 387 74 387ZM138 -38Q133 -38 132 -26T132 -7Q137 19 151 49T181 108T207 157L272 271Q276 278 289 301T322
355T361 421T400 484T431 531T446 549Q451 549 459 544T467 529Q467 524 465 520T461 513Q442 482 422 453T382 394Q340 330 298 264T214 129Q206 114 191 89T163 38T146 -7Q145 -10 145 -15Q145 -21 147 -23T149 -28Q148 -32 144 -35T138 -38ZM489 -42Q485 -37
484 -29T484 -13Q489 10 504 37T532 86Q523 88 502 85T458 76T419 67T403 63Q398 63 397 72T396 82Q398 92 416 108T460 144T513 180Q533 193 549 206T589 232Q590 232 590 232T591 233Q597 233 600 222T600 208Q552 180 510 150T421 89Q432 92 453 96T500 102T544
104Q547 108 558 125T584 162T609 200T621 222Q621 227 617 229T617 233Q623 236 629 236Q637 236 644 231T650 216Q650 211 638 193T611 154T583 118T570 100Q581 99 590 93T600 77Q600 68 587 59Q584 56 581 56Q579 56 579 58Q579 61 584 66Q588 71 588 76Q588
84 579 86T564 88Q559 82 547 64T523 26T503 -11Q499 -17 498 -21T497 -31Q497 -37 498 -39V-41Q498 -43 495 -43T489 -42Z" />
<glyph unicode="&#xbf;" glyph-name="questiondown" horiz-adv-x="311" d="M215 183Q222 183 224 175T226 162Q226 138 205 108T152 48T91 -9T44 -50Q27 -65 8 -88T-11 -135Q-11 -161 10 -172T54 -183Q85 -183 104 -171T135 -147T151 -135Q154 -135 154 -140Q154
-144 153 -148T149 -155Q127 -190 90 -217T10 -244Q-20 -244 -43 -227T-66 -178Q-66 -146 -47 -115T4 -54T70 4T136 58T186 109T206 157Q206 160 205 163T204 170Q204 175 207 179T215 183ZM260 328Q266 328 278 322T301 308T311 292Q311 283 297 272T267 253T243
244Q239 244 235 246T231 253Q231 255 233 257Q245 272 249 289Q250 294 250 303T252 320T260 328Z" />
<glyph unicode="&#xc0;" glyph-name="Agrave" horiz-adv-x="525" d="M10 -24Q6 -24 6 -20Q6 -12 24 14T71 74T129 142T182 201T213 235Q189 232 160 225T104 205T63 170Q55 159 55 145Q55 131 62 125T70 114Q70 112 64 112Q45 112 34 131T22 168Q22 179 25 188Q36
222 63 242T126 273T198 287T265 290Q314 340 366 389T476 477Q497 491 522 500T573 509Q601 509 622 495T643 450Q643 427 633 405T610 363Q603 352 587 324T548 259T503 182T461 105T429 42T417 5Q417 2 418 0Q406 -6 390 -6Q371 -6 367 5T362 33Q362 48 371
71T394 120T421 169T444 207Q437 217 420 223T380 234T337 240T306 242Q290 242 274 241T242 238Q204 198 167 156T95 71Q78 51 61 29T26 -13Q23 -16 19 -20T10 -24ZM452 220Q459 232 473 256T505 310T539 369T566 422T580 456Q585 476 572 481T549 486Q533 486
514 478T482 461Q430 424 382 380T290 289Q306 288 331 285T383 274T429 253T452 220ZM657 560Q640 571 612 581T555 599T509 609Q499 611 495 614T489 621Q489 626 496 633T513 641L523 640Q564 627 602 606T659 570Q661 569 661 564T657 560Z" />
<glyph unicode="&#xc1;" glyph-name="Aacute" horiz-adv-x="525" d="M10 -24Q6 -24 6 -20Q6 -12 24 14T71 74T129 142T182 201T213 235Q189 232 160 225T104 205T63 170Q55 159 55 145Q55 131 62 125T70 114Q70 112 64 112Q45 112 34 131T22 168Q22 179 25 188Q36
222 63 242T126 273T198 287T265 290Q314 340 366 389T476 477Q497 491 522 500T573 509Q601 509 622 495T643 450Q643 427 633 405T610 363Q603 352 587 324T548 259T503 182T461 105T429 42T417 5Q417 2 418 0Q406 -6 390 -6Q371 -6 367 5T362 33Q362 48 371
71T394 120T421 169T444 207Q437 217 420 223T380 234T337 240T306 242Q290 242 274 241T242 238Q204 198 167 156T95 71Q78 51 61 29T26 -13Q23 -16 19 -20T10 -24ZM452 220Q459 232 473 256T505 310T539 369T566 422T580 456Q585 476 572 481T549 486Q533 486
514 478T482 461Q430 424 382 380T290 289Q306 288 331 285T383 274T429 253T452 220ZM565 559Q562 559 562 564T565 570Q584 584 622 605T701 640L711 641Q721 640 728 633T735 621Q734 618 730 615T715 609Q697 607 669 600T613 582T567 560Q566 560 566 560T565
559Z" />
<glyph unicode="&#xc2;" glyph-name="Acircumflex" horiz-adv-x="525" d="M10 -24Q6 -24 6 -20Q6 -12 24 14T71 74T129 142T182 201T213 235Q189 232 160 225T104 205T63 170Q55 159 55 145Q55 131 62 125T70 114Q70 112 64 112Q45 112 34 131T22 168Q22 179 25
188Q36 222 63 242T126 273T198 287T265 290Q314 340 366 389T476 477Q497 491 522 500T573 509Q601 509 622 495T643 450Q643 427 633 405T610 363Q603 352 587 324T548 259T503 182T461 105T429 42T417 5Q417 2 418 0Q406 -6 390 -6Q371 -6 367 5T362 33Q362
48 371 71T394 120T421 169T444 207Q437 217 420 223T380 234T337 240T306 242Q290 242 274 241T242 238Q204 198 167 156T95 71Q78 51 61 29T26 -13Q23 -16 19 -20T10 -24ZM452 220Q459 232 473 256T505 310T539 369T566 422T580 456Q585 476 572 481T549 486Q533
486 514 478T482 461Q430 424 382 380T290 289Q306 288 331 285T383 274T429 253T452 220ZM488 558Q483 558 483 562Q483 564 484 567T493 573Q498 576 515 585T553 606T591 627T614 640Q619 644 625 645Q627 645 628 645T631 646Q638 646 642 643T650 635Q661
623 672 610T696 582Q700 578 705 572T710 564Q708 562 703 562Q699 562 694 562T684 566Q672 570 650 583T613 609Q588 598 560 587T513 567Q505 564 498 561T488 558Z" />
<glyph unicode="&#xc3;" glyph-name="Atilde" horiz-adv-x="525" d="M10 -24Q6 -24 6 -20Q6 -12 24 14T71 74T129 142T182 201T213 235Q189 232 160 225T104 205T63 170Q55 159 55 145Q55 131 62 125T70 114Q70 112 64 112Q45 112 34 131T22 168Q22 179 25 188Q36
222 63 242T126 273T198 287T265 290Q314 340 366 389T476 477Q497 491 522 500T573 509Q601 509 622 495T643 450Q643 427 633 405T610 363Q603 352 587 324T548 259T503 182T461 105T429 42T417 5Q417 2 418 0Q406 -6 390 -6Q371 -6 367 5T362 33Q362 48 371
71T394 120T421 169T444 207Q437 217 420 223T380 234T337 240T306 242Q290 242 274 241T242 238Q204 198 167 156T95 71Q78 51 61 29T26 -13Q23 -16 19 -20T10 -24ZM452 220Q459 232 473 256T505 310T539 369T566 422T580 456Q585 476 572 481T549 486Q533 486
514 478T482 461Q430 424 382 380T290 289Q306 288 331 285T383 274T429 253T452 220ZM653 560Q632 560 619 568T596 585T568 593Q551 593 538 581T517 561Q509 559 509 563Q512 577 525 591T555 616T588 626Q608 626 623 620T652 607T683 600Q701 600 720 625Q728
625 728 619Q728 604 714 591T683 569T653 560Z" />
<glyph unicode="&#xc4;" glyph-name="Adieresis" horiz-adv-x="525" d="M10 -24Q6 -24 6 -20Q6 -12 24 14T71 74T129 142T182 201T213 235Q189 232 160 225T104 205T63 170Q55 159 55 145Q55 131 62 125T70 114Q70 112 64 112Q45 112 34 131T22 168Q22 179 25
188Q36 222 63 242T126 273T198 287T265 290Q314 340 366 389T476 477Q497 491 522 500T573 509Q601 509 622 495T643 450Q643 427 633 405T610 363Q603 352 587 324T548 259T503 182T461 105T429 42T417 5Q417 2 418 0Q406 -6 390 -6Q371 -6 367 5T362 33Q362
48 371 71T394 120T421 169T444 207Q437 217 420 223T380 234T337 240T306 242Q290 242 274 241T242 238Q204 198 167 156T95 71Q78 51 61 29T26 -13Q23 -16 19 -20T10 -24ZM452 220Q459 232 473 256T505 310T539 369T566 422T580 456Q585 476 572 481T549 486Q533
486 514 478T482 461Q430 424 382 380T290 289Q306 288 331 285T383 274T429 253T452 220ZM673 558Q667 558 657 563T637 575T628 589Q628 597 640 606T666 623T687 630Q697 630 697 623Q697 620 696 619Q689 612 687 606T682 591Q680 585 680 572T673 558ZM563
558Q557 558 547 563T527 575T518 589Q518 597 530 606T556 623T577 630Q587 630 587 623Q587 620 586 619Q579 612 577 606T572 591Q570 585 570 572T563 558Z" />
<glyph unicode="&#xc5;" glyph-name="Aring" horiz-adv-x="525" d="M10 -24Q6 -24 6 -20Q6 -12 24 14T71 74T129 142T182 201T213 235Q189 232 160 225T104 205T63 170Q55 159 55 145Q55 131 62 125T70 114Q70 112 64 112Q45 112 34 131T22 168Q22 179 25 188Q36
222 63 242T126 273T198 287T265 290Q314 340 366 389T476 477Q497 491 522 500T573 509Q601 509 622 495T643 450Q643 427 633 405T610 363Q603 352 587 324T548 259T503 182T461 105T429 42T417 5Q417 2 418 0Q406 -6 390 -6Q371 -6 367 5T362 33Q362 48 371
71T394 120T421 169T444 207Q437 217 420 223T380 234T337 240T306 242Q290 242 274 241T242 238Q204 198 167 156T95 71Q78 51 61 29T26 -13Q23 -16 19 -20T10 -24ZM452 220Q459 232 473 256T505 310T539 369T566 422T580 456Q585 476 572 481T549 486Q533 486
514 478T482 461Q430 424 382 380T290 289Q306 288 331 285T383 274T429 253T452 220ZM622 558Q603 558 592 569T580 598Q580 625 604 646T657 668Q677 668 688 658T700 630Q700 611 688 595T659 568T622 558ZM626 575Q651 575 666 609Q670 618 670 629Q670 649
655 649Q641 649 626 633T610 596Q610 575 626 575Z" />
<glyph unicode="&#xc6;" glyph-name="AE" horiz-adv-x="707" d="M-35 -76Q-41 -68 -49 -54T-57 -30Q-57 -19 -42 5T-3 59T46 120T92 174T121 207Q96 204 70 203T19 197L45 236Q72 239 98 239T151 240Q174 266 206 300T275 371T353 439T433 489T510 509Q521 509
533 505T553 492Q557 497 561 502T572 508Q585 508 599 499T624 484Q680 484 736 484T849 483Q853 483 853 481Q853 474 841 464T816 445T795 437Q769 437 742 440T689 443Q669 443 648 442T606 434Q576 425 553 402T511 351T479 296L472 283Q537 283 602 283T731
284Q734 284 734 282Q734 279 725 271T712 260Q675 260 639 258T566 252Q544 250 522 248T477 243Q468 242 456 238T438 225Q432 218 428 208T418 190L373 111Q367 100 364 85T361 57Q361 21 387 9T443 -3Q482 -3 528 7T619 34T701 64Q695 49 684 32T658 7Q651
4 643 3T627 -1Q577 -11 525 -17T423 -23H419Q397 -23 373 -20T331 -2Q326 -3 321 -4T309 -6Q292 -6 283 5T274 33Q274 53 286 80T313 135T339 180Q319 190 288 196T225 206T170 210Q163 210 157 210T143 209Q131 195 110 168T64 106T17 36T-20 -28T-35 -76ZM345
189Q369 231 393 272T441 356Q452 376 462 396T482 436Q485 444 487 452T490 468Q490 476 487 481T474 487Q452 487 420 468T351 417T279 352T215 288T171 240Q198 239 230 233T293 217T345 189Z" />
<glyph unicode="&#xc7;" glyph-name="Ccedilla" horiz-adv-x="579" d="M222 -36Q168 -36 122 -16T47 43T19 141Q19 202 48 257T125 357T233 436T355 488T472 506Q497 506 523 498T568 472T587 424Q587 390 562 360T509 311Q506 309 502 306T493 303Q488 303 488
309Q488 317 499 331T521 365T532 413Q532 453 504 468T441 483Q375 483 312 458T196 388T109 287Q93 259 82 227T70 162Q70 108 99 78T172 35T262 22Q340 22 404 41T528 114Q530 116 532 116Q535 116 535 110Q535 106 533 105Q501 62 448 31T335 -18T222 -36ZM130
105Q111 105 104 110T96 123Q110 120 123 120Q140 120 151 125T162 147Q162 158 157 168T151 198Q151 213 163 222T198 231Q200 231 203 230T206 224Q193 223 187 216T181 198Q181 182 188 173T196 143Q196 127 177 116T130 105Z" />
<glyph unicode="&#xc8;" glyph-name="Egrave" horiz-adv-x="505" d="M157 -23Q143 -23 120 -22T74 -16T35 0T19 33Q19 50 34 82T73 156T127 241T185 325T237 397T273 445Q263 443 239 438T187 425T141 405T122 378Q122 373 123 371Q125 369 125 367Q125 360 117
360Q110 360 108 371T105 388Q105 411 123 429T166 461T209 481Q236 491 265 496T323 505Q329 511 333 515T347 519Q354 519 362 517T374 509Q385 509 396 509T418 510Q446 510 475 507T524 488T545 436Q545 428 542 416T533 394T516 384Q512 384 512 385Q512 387
518 395T524 413Q524 428 509 437T471 449T429 454T399 455Q365 455 332 452Q299 409 267 366T203 279Q261 279 318 279T434 278Q439 278 439 274Q439 265 430 261T413 255Q400 253 387 253T359 251Q334 250 303 248T242 242T188 229Q174 224 156 202T119 151T89
94T77 52Q77 30 93 20T132 6T171 3Q197 3 233 8T307 22T380 41T439 64Q443 66 446 66Q454 66 454 56Q454 37 433 25T396 7Q366 -2 322 -8T233 -19T157 -23ZM479 561Q462 572 434 582T377 600T331 610Q321 612 317 615T311 622Q311 627 318 634T335 642L345 641Q386
628 424 607T481 571Q483 570 483 565T479 561Z" />
<glyph unicode="&#xc9;" glyph-name="Eacute" horiz-adv-x="505" d="M157 -23Q143 -23 120 -22T74 -16T35 0T19 33Q19 50 34 82T73 156T127 241T185 325T237 397T273 445Q263 443 239 438T187 425T141 405T122 378Q122 373 123 371Q125 369 125 367Q125 360 117
360Q110 360 108 371T105 388Q105 411 123 429T166 461T209 481Q236 491 265 496T323 505Q329 511 333 515T347 519Q354 519 362 517T374 509Q385 509 396 509T418 510Q446 510 475 507T524 488T545 436Q545 428 542 416T533 394T516 384Q512 384 512 385Q512 387
518 395T524 413Q524 428 509 437T471 449T429 454T399 455Q365 455 332 452Q299 409 267 366T203 279Q261 279 318 279T434 278Q439 278 439 274Q439 265 430 261T413 255Q400 253 387 253T359 251Q334 250 303 248T242 242T188 229Q174 224 156 202T119 151T89
94T77 52Q77 30 93 20T132 6T171 3Q197 3 233 8T307 22T380 41T439 64Q443 66 446 66Q454 66 454 56Q454 37 433 25T396 7Q366 -2 322 -8T233 -19T157 -23ZM387 560Q384 560 384 565T387 571Q406 585 444 606T523 641L533 642Q543 641 550 634T557 622Q556 619
552 616T537 610Q519 608 491 601T435 583T389 561Q388 561 388 561T387 560Z" />
<glyph unicode="&#xca;" glyph-name="Ecircumflex" horiz-adv-x="505" d="M157 -23Q143 -23 120 -22T74 -16T35 0T19 33Q19 50 34 82T73 156T127 241T185 325T237 397T273 445Q263 443 239 438T187 425T141 405T122 378Q122 373 123 371Q125 369 125 367Q125 360
117 360Q110 360 108 371T105 388Q105 411 123 429T166 461T209 481Q236 491 265 496T323 505Q329 511 333 515T347 519Q354 519 362 517T374 509Q385 509 396 509T418 510Q446 510 475 507T524 488T545 436Q545 428 542 416T533 394T516 384Q512 384 512 385Q512
387 518 395T524 413Q524 428 509 437T471 449T429 454T399 455Q365 455 332 452Q299 409 267 366T203 279Q261 279 318 279T434 278Q439 278 439 274Q439 265 430 261T413 255Q400 253 387 253T359 251Q334 250 303 248T242 242T188 229Q174 224 156 202T119 151T89
94T77 52Q77 30 93 20T132 6T171 3Q197 3 233 8T307 22T380 41T439 64Q443 66 446 66Q454 66 454 56Q454 37 433 25T396 7Q366 -2 322 -8T233 -19T157 -23ZM310 559Q305 559 305 563Q305 565 306 568T315 574Q320 577 337 586T375 607T413 628T436 641Q441 645
447 646Q449 646 450 646T453 647Q460 647 464 644T472 636Q483 624 494 611T518 583Q522 579 527 573T532 565Q530 563 525 563Q521 563 516 563T506 567Q494 571 472 584T435 610Q410 599 382 588T335 568Q327 565 320 562T310 559Z" />
<glyph unicode="&#xcb;" glyph-name="Edieresis" horiz-adv-x="505" d="M157 -23Q143 -23 120 -22T74 -16T35 0T19 33Q19 50 34 82T73 156T127 241T185 325T237 397T273 445Q263 443 239 438T187 425T141 405T122 378Q122 373 123 371Q125 369 125 367Q125 360
117 360Q110 360 108 371T105 388Q105 411 123 429T166 461T209 481Q236 491 265 496T323 505Q329 511 333 515T347 519Q354 519 362 517T374 509Q385 509 396 509T418 510Q446 510 475 507T524 488T545 436Q545 428 542 416T533 394T516 384Q512 384 512 385Q512
387 518 395T524 413Q524 428 509 437T471 449T429 454T399 455Q365 455 332 452Q299 409 267 366T203 279Q261 279 318 279T434 278Q439 278 439 274Q439 265 430 261T413 255Q400 253 387 253T359 251Q334 250 303 248T242 242T188 229Q174 224 156 202T119 151T89
94T77 52Q77 30 93 20T132 6T171 3Q197 3 233 8T307 22T380 41T439 64Q443 66 446 66Q454 66 454 56Q454 37 433 25T396 7Q366 -2 322 -8T233 -19T157 -23ZM495 559Q489 559 479 564T459 576T450 590Q450 598 462 607T488 624T509 631Q519 631 519 624Q519 621
518 620Q511 613 509 607T504 592Q502 586 502 573T495 559ZM385 559Q379 559 369 564T349 576T340 590Q340 598 352 607T378 624T399 631Q409 631 409 624Q409 621 408 620Q401 613 399 607T394 592Q392 586 392 573T385 559Z" />
<glyph unicode="&#xcc;" glyph-name="Igrave" horiz-adv-x="434" d="M247 370Q231 370 225 385T219 414Q219 451 252 465Q287 482 334 489T419 496Q433 496 453 494T495 486T530 469T544 438Q544 434 543 427T536 420Q531 420 531 425Q531 427 532 428T533 432Q533
445 516 450T478 457T449 459Q439 459 415 457T360 451T302 438T256 419T237 393Q237 384 243 378T250 371Q250 371 249 371T247 370ZM-12 -73Q-21 -73 -28 -56T-35 -32Q-35 -4 -16 14T33 43T91 59T141 64Q152 84 175 122T227 208T288 302T352 388T410 445Q412
446 415 446T421 446Q428 447 441 445T454 436V434Q454 429 448 423Q395 360 344 303T246 188T161 63Q172 63 191 60T231 51T266 34T281 8Q281 5 280 5Q279 6 279 7Q274 16 257 20T222 25T194 26Q165 26 138 23Q137 20 133 16T126 11Q123 11 123 15Q123 19 124
21Q112 19 89 14T40 0T-2 -22T-19 -53Q-19 -62 -15 -66T-10 -72Q-10 -73 -12 -73ZM516 547Q499 558 471 568T414 586T368 596Q358 598 354 601T348 608Q348 613 355 620T372 628L382 627Q423 614 461 593T518 557Q520 556 520 551T516 547Z" />
<glyph unicode="&#xcd;" glyph-name="Iacute" horiz-adv-x="434" d="M247 370Q231 370 225 385T219 414Q219 451 252 465Q287 482 334 489T419 496Q433 496 453 494T495 486T530 469T544 438Q544 434 543 427T536 420Q531 420 531 425Q531 427 532 428T533 432Q533
445 516 450T478 457T449 459Q439 459 415 457T360 451T302 438T256 419T237 393Q237 384 243 378T250 371Q250 371 249 371T247 370ZM-12 -73Q-21 -73 -28 -56T-35 -32Q-35 -4 -16 14T33 43T91 59T141 64Q152 84 175 122T227 208T288 302T352 388T410 445Q412
446 415 446T421 446Q428 447 441 445T454 436V434Q454 429 448 423Q395 360 344 303T246 188T161 63Q172 63 191 60T231 51T266 34T281 8Q281 5 280 5Q279 6 279 7Q274 16 257 20T222 25T194 26Q165 26 138 23Q137 20 133 16T126 11Q123 11 123 15Q123 19 124
21Q112 19 89 14T40 0T-2 -22T-19 -53Q-19 -62 -15 -66T-10 -72Q-10 -73 -12 -73ZM424 546Q421 546 421 551T424 557Q443 571 481 592T560 627L570 628Q580 627 587 620T594 608Q593 605 589 602T574 596Q556 594 528 587T472 569T426 547Q425 547 425 547T424
546Z" />
<glyph unicode="&#xce;" glyph-name="Icircumflex" horiz-adv-x="434" d="M247 370Q231 370 225 385T219 414Q219 451 252 465Q287 482 334 489T419 496Q433 496 453 494T495 486T530 469T544 438Q544 434 543 427T536 420Q531 420 531 425Q531 427 532 428T533
432Q533 445 516 450T478 457T449 459Q439 459 415 457T360 451T302 438T256 419T237 393Q237 384 243 378T250 371Q250 371 249 371T247 370ZM-12 -73Q-21 -73 -28 -56T-35 -32Q-35 -4 -16 14T33 43T91 59T141 64Q152 84 175 122T227 208T288 302T352 388T410
445Q412 446 415 446T421 446Q428 447 441 445T454 436V434Q454 429 448 423Q395 360 344 303T246 188T161 63Q172 63 191 60T231 51T266 34T281 8Q281 5 280 5Q279 6 279 7Q274 16 257 20T222 25T194 26Q165 26 138 23Q137 20 133 16T126 11Q123 11 123 15Q123
19 124 21Q112 19 89 14T40 0T-2 -22T-19 -53Q-19 -62 -15 -66T-10 -72Q-10 -73 -12 -73ZM347 545Q342 545 342 549Q342 551 343 554T352 560Q357 563 374 572T412 593T450 614T473 627Q478 631 484 632Q486 632 487 632T490 633Q497 633 501 630T509 622Q520 610
531 597T555 569Q559 565 564 559T569 551Q567 549 562 549Q558 549 553 549T543 553Q531 557 509 570T472 596Q447 585 419 574T372 554Q364 551 357 548T347 545Z" />
<glyph unicode="&#xcf;" glyph-name="Idieresis" horiz-adv-x="434" d="M247 370Q231 370 225 385T219 414Q219 451 252 465Q287 482 334 489T419 496Q433 496 453 494T495 486T530 469T544 438Q544 434 543 427T536 420Q531 420 531 425Q531 427 532 428T533
432Q533 445 516 450T478 457T449 459Q439 459 415 457T360 451T302 438T256 419T237 393Q237 384 243 378T250 371Q250 371 249 371T247 370ZM-12 -73Q-21 -73 -28 -56T-35 -32Q-35 -4 -16 14T33 43T91 59T141 64Q152 84 175 122T227 208T288 302T352 388T410
445Q412 446 415 446T421 446Q428 447 441 445T454 436V434Q454 429 448 423Q395 360 344 303T246 188T161 63Q172 63 191 60T231 51T266 34T281 8Q281 5 280 5Q279 6 279 7Q274 16 257 20T222 25T194 26Q165 26 138 23Q137 20 133 16T126 11Q123 11 123 15Q123
19 124 21Q112 19 89 14T40 0T-2 -22T-19 -53Q-19 -62 -15 -66T-10 -72Q-10 -73 -12 -73ZM532 545Q526 545 516 550T496 562T487 576Q487 584 499 593T525 610T546 617Q556 617 556 610Q556 607 555 606Q548 599 546 593T541 578Q539 572 539 559T532 545ZM422
545Q416 545 406 550T386 562T377 576Q377 584 389 593T415 610T436 617Q446 617 446 610Q446 607 445 606Q438 599 436 593T431 578Q429 572 429 559T422 545Z" />
<glyph unicode="&#xd0;" glyph-name="Eth" horiz-adv-x="638" d="M178 -27Q160 -27 135 -26T86 -20T45 -4T28 26Q28 38 34 51Q48 80 71 120T121 203T174 287T223 357T259 399Q263 402 268 403T277 404Q282 404 293 401T305 390Q305 387 301 383Q262 334 224 283T148
180Q127 150 105 120T63 58Q56 48 56 38Q56 25 69 16T117 6Q163 6 224 18T350 53T470 110T564 188T609 286Q610 289 610 292T610 298Q610 344 582 373T512 419T424 443T344 450Q286 450 232 436T122 404Q118 403 115 402T106 401Q94 401 88 409T82 428Q82 453 104
462Q113 466 124 468T145 473Q198 485 251 493T358 501Q403 501 449 492T536 461T603 400Q640 346 640 283Q640 210 600 152T500 56Q457 28 402 10T288 -18T178 -27ZM109 217Q102 217 94 219T86 230Q86 236 91 241T103 247L304 248Q305 248 307 248T310 245Q310
239 292 235T247 227T190 221T139 218T109 217Z" />
<glyph unicode="&#xd1;" glyph-name="Ntilde" horiz-adv-x="484" d="M353 -26Q334 -26 323 -15T314 14Q316 32 333 65T374 141T426 229T478 317T517 393T532 444Q532 452 526 459T511 467Q496 467 474 457T440 437Q400 408 354 367T261 278T169 179T90 79T32 -13Q32
-13 28 -13T18 -14Q11 -14 7 -13T3 -5Q39 90 91 188T195 374Q215 406 235 439T278 503Q283 509 293 512T315 516Q329 516 340 511T351 495Q351 486 341 473Q322 451 306 428T272 380Q242 336 213 291T155 201Q178 226 213 263T291 341T379 417T467 475T545 498Q597
498 597 444Q597 416 584 388T557 335Q549 322 533 295T495 232T453 158T413 86T383 26T371 -8Q371 -11 373 -13Q367 -16 363 -21T353 -26ZM594 560Q573 560 560 568T537 585T509 593Q492 593 479 581T458 561Q450 559 450 563Q453 577 466 591T496 616T529 626Q549
626 564 620T593 607T624 600Q642 600 661 625Q669 625 669 619Q669 604 655 591T624 569T594 560Z" />
<glyph unicode="&#xd2;" glyph-name="Ograve" horiz-adv-x="484" d="M122 -5Q70 -5 41 21T11 102Q11 152 33 209T93 321T180 421T283 493T389 520Q443 520 482 489T522 402Q522 353 501 304T453 213Q427 174 391 135T312 65T221 14T122 -5ZM153 19Q191 19 230
39T307 90T374 156T423 221Q448 259 468 307T489 402Q489 440 471 465T411 490Q373 490 334 470T257 419T190 354T141 289Q116 251 96 203T75 108Q75 70 94 45T153 19ZM522 571Q505 582 477 592T420 610T374 620Q364 622 360 625T354 632Q354 637 361 644T378 652L388
651Q429 638 467 617T524 581Q526 580 526 575T522 571Z" />
<glyph unicode="&#xd3;" glyph-name="Oacute" horiz-adv-x="484" d="M122 -5Q70 -5 41 21T11 102Q11 152 33 209T93 321T180 421T283 493T389 520Q443 520 482 489T522 402Q522 353 501 304T453 213Q427 174 391 135T312 65T221 14T122 -5ZM153 19Q191 19 230
39T307 90T374 156T423 221Q448 259 468 307T489 402Q489 440 471 465T411 490Q373 490 334 470T257 419T190 354T141 289Q116 251 96 203T75 108Q75 70 94 45T153 19ZM430 570Q427 570 427 575T430 581Q449 595 487 616T566 651L576 652Q586 651 593 644T600 632Q599
629 595 626T580 620Q562 618 534 611T478 593T432 571Q431 571 431 571T430 570Z" />
<glyph unicode="&#xd4;" glyph-name="Ocircumflex" horiz-adv-x="484" d="M122 -5Q70 -5 41 21T11 102Q11 152 33 209T93 321T180 421T283 493T389 520Q443 520 482 489T522 402Q522 353 501 304T453 213Q427 174 391 135T312 65T221 14T122 -5ZM153 19Q191 19
230 39T307 90T374 156T423 221Q448 259 468 307T489 402Q489 440 471 465T411 490Q373 490 334 470T257 419T190 354T141 289Q116 251 96 203T75 108Q75 70 94 45T153 19ZM353 569Q348 569 348 573Q348 575 349 578T358 584Q363 587 380 596T418 617T456 638T479
651Q484 655 490 656Q492 656 493 656T496 657Q503 657 507 654T515 646Q526 634 537 621T561 593Q565 589 570 583T575 575Q573 573 568 573Q564 573 559 573T549 577Q537 581 515 594T478 620Q453 609 425 598T378 578Q370 575 363 572T353 569Z" />
<glyph unicode="&#xd5;" glyph-name="Otilde" horiz-adv-x="484" d="M122 -5Q70 -5 41 21T11 102Q11 152 33 209T93 321T180 421T283 493T389 520Q443 520 482 489T522 402Q522 353 501 304T453 213Q427 174 391 135T312 65T221 14T122 -5ZM153 19Q191 19 230
39T307 90T374 156T423 221Q448 259 468 307T489 402Q489 440 471 465T411 490Q373 490 334 470T257 419T190 354T141 289Q116 251 96 203T75 108Q75 70 94 45T153 19ZM518 571Q497 571 484 579T461 596T433 604Q416 604 403 592T382 572Q374 570 374 574Q377 588
390 602T420 627T453 637Q473 637 488 631T517 618T548 611Q566 611 585 636Q593 636 593 630Q593 615 579 602T548 580T518 571Z" />
<glyph unicode="&#xd6;" glyph-name="Odieresis" horiz-adv-x="484" d="M122 -5Q70 -5 41 21T11 102Q11 152 33 209T93 321T180 421T283 493T389 520Q443 520 482 489T522 402Q522 353 501 304T453 213Q427 174 391 135T312 65T221 14T122 -5ZM153 19Q191 19 230
39T307 90T374 156T423 221Q448 259 468 307T489 402Q489 440 471 465T411 490Q373 490 334 470T257 419T190 354T141 289Q116 251 96 203T75 108Q75 70 94 45T153 19ZM538 569Q532 569 522 574T502 586T493 600Q493 608 505 617T531 634T552 641Q562 641 562 634Q562
631 561 630Q554 623 552 617T547 602Q545 596 545 583T538 569ZM428 569Q422 569 412 574T392 586T383 600Q383 608 395 617T421 634T442 641Q452 641 452 634Q452 631 451 630Q444 623 442 617T437 602Q435 596 435 583T428 569Z" />
<glyph unicode="&#xd7;" glyph-name="multiply" horiz-adv-x="478" d="M106 73L72 106L209 238L72 370L106 402L243 270L380 402L414 370L277 238L414 106L380 73L243 205L106 73Z" />
<glyph unicode="&#xd8;" glyph-name="Oslash" horiz-adv-x="467" d="M48 -110Q41 -110 37 -100T32 -84Q32 -67 41 -46T59 -11Q31 5 20 33T8 92Q8 145 31 206T94 328T186 437T295 516T409 546Q432 546 458 538Q460 541 469 552T488 576T508 599T519 609Q526 609
542 606T559 593Q559 589 557 586T553 580Q540 564 527 548T500 516Q523 498 532 473T541 419Q541 367 519 312T468 213Q440 171 404 129T324 52T230 -4T126 -25Q115 -25 104 -24T82 -20Q75 -31 65 -49T54 -82Q54 -93 59 -95T64 -100Q64 -104 58 -107T48 -110ZM90
38Q176 158 262 277T439 514H433Q392 514 350 492T269 436T198 365T146 295Q120 254 98 201T76 98Q76 82 79 67T90 38ZM159 2Q200 2 242 24T323 80T394 152T446 221Q472 262 494 315T516 418Q516 440 510 461T485 497Q389 379 296 258T109 17Q120 9 133 6T159 2Z"
/>
<glyph unicode="&#xd9;" glyph-name="Ugrave" horiz-adv-x="467" d="M407 -90Q359 -90 338 -62T317 12Q317 44 326 79T346 144Q351 157 356 168T368 192Q324 141 277 103T170 31Q149 19 123 8T71 -3Q44 -3 30 12T16 53Q16 77 25 102T45 148Q74 205 110 259T181
368Q191 383 197 392T209 410T225 435Q231 444 236 453T248 472Q257 487 274 487Q284 487 284 478Q284 473 281 467Q271 450 253 417T213 341T168 254T127 167T97 93T85 45Q85 21 106 21Q119 21 134 28T160 41Q229 81 280 126T372 221T452 328T536 447Q541 453
551 469T573 499T593 513Q602 513 602 504Q602 501 601 500Q552 426 500 338T410 140Q398 107 388 66T378 -11Q378 -23 381 -39T393 -67T418 -79Q432 -79 443 -70T458 -60Q460 -60 460 -64Q460 -73 450 -78T427 -87T407 -90ZM482 543Q465 554 437 564T380 582T334
592Q324 594 320 597T314 604Q314 609 321 616T338 624L348 623Q389 610 427 589T484 553Q486 552 486 547T482 543Z" />
<glyph unicode="&#xda;" glyph-name="Uacute" horiz-adv-x="467" d="M407 -90Q359 -90 338 -62T317 12Q317 44 326 79T346 144Q351 157 356 168T368 192Q324 141 277 103T170 31Q149 19 123 8T71 -3Q44 -3 30 12T16 53Q16 77 25 102T45 148Q74 205 110 259T181
368Q191 383 197 392T209 410T225 435Q231 444 236 453T248 472Q257 487 274 487Q284 487 284 478Q284 473 281 467Q271 450 253 417T213 341T168 254T127 167T97 93T85 45Q85 21 106 21Q119 21 134 28T160 41Q229 81 280 126T372 221T452 328T536 447Q541 453
551 469T573 499T593 513Q602 513 602 504Q602 501 601 500Q552 426 500 338T410 140Q398 107 388 66T378 -11Q378 -23 381 -39T393 -67T418 -79Q432 -79 443 -70T458 -60Q460 -60 460 -64Q460 -73 450 -78T427 -87T407 -90ZM390 542Q387 542 387 547T390 553Q409
567 447 588T526 623L536 624Q546 623 553 616T560 604Q559 601 555 598T540 592Q522 590 494 583T438 565T392 543Q391 543 391 543T390 542Z" />
<glyph unicode="&#xdb;" glyph-name="Ucircumflex" horiz-adv-x="467" d="M407 -90Q359 -90 338 -62T317 12Q317 44 326 79T346 144Q351 157 356 168T368 192Q324 141 277 103T170 31Q149 19 123 8T71 -3Q44 -3 30 12T16 53Q16 77 25 102T45 148Q74 205 110 259T181
368Q191 383 197 392T209 410T225 435Q231 444 236 453T248 472Q257 487 274 487Q284 487 284 478Q284 473 281 467Q271 450 253 417T213 341T168 254T127 167T97 93T85 45Q85 21 106 21Q119 21 134 28T160 41Q229 81 280 126T372 221T452 328T536 447Q541 453
551 469T573 499T593 513Q602 513 602 504Q602 501 601 500Q552 426 500 338T410 140Q398 107 388 66T378 -11Q378 -23 381 -39T393 -67T418 -79Q432 -79 443 -70T458 -60Q460 -60 460 -64Q460 -73 450 -78T427 -87T407 -90ZM313 541Q308 541 308 545Q308 547 309
550T318 556Q323 559 340 568T378 589T416 610T439 623Q444 627 450 628Q452 628 453 628T456 629Q463 629 467 626T475 618Q486 606 497 593T521 565Q525 561 530 555T535 547Q533 545 528 545Q524 545 519 545T509 549Q497 553 475 566T438 592Q413 581 385 570T338
550Q330 547 323 544T313 541Z" />
<glyph unicode="&#xdc;" glyph-name="Udieresis" horiz-adv-x="467" d="M407 -90Q359 -90 338 -62T317 12Q317 44 326 79T346 144Q351 157 356 168T368 192Q324 141 277 103T170 31Q149 19 123 8T71 -3Q44 -3 30 12T16 53Q16 77 25 102T45 148Q74 205 110 259T181
368Q191 383 197 392T209 410T225 435Q231 444 236 453T248 472Q257 487 274 487Q284 487 284 478Q284 473 281 467Q271 450 253 417T213 341T168 254T127 167T97 93T85 45Q85 21 106 21Q119 21 134 28T160 41Q229 81 280 126T372 221T452 328T536 447Q541 453
551 469T573 499T593 513Q602 513 602 504Q602 501 601 500Q552 426 500 338T410 140Q398 107 388 66T378 -11Q378 -23 381 -39T393 -67T418 -79Q432 -79 443 -70T458 -60Q460 -60 460 -64Q460 -73 450 -78T427 -87T407 -90ZM498 541Q492 541 482 546T462 558T453
572Q453 580 465 589T491 606T512 613Q522 613 522 606Q522 603 521 602Q514 595 512 589T507 574Q505 568 505 555T498 541ZM388 541Q382 541 372 546T352 558T343 572Q343 580 355 589T381 606T402 613Q412 613 412 606Q412 603 411 602Q404 595 402 589T397
574Q395 568 395 555T388 541Z" />
<glyph unicode="&#xdd;" glyph-name="Yacute" horiz-adv-x="447" d="M79 -191Q60 -191 39 -186T4 -166T-11 -129Q-11 -125 -9 -120T-2 -114Q3 -114 4 -118T7 -125Q8 -128 8 -130T10 -136Q16 -149 33 -158T63 -167Q102 -167 136 -147T198 -103Q263 -48 308 22T390
170T463 323Q438 295 403 256T327 174T241 93T154 30T73 0H65Q39 0 25 15T10 55Q10 81 20 105T44 151Q53 166 73 200T119 277T167 362T206 435T221 477Q221 480 220 482Q231 488 243 488Q260 488 270 478T280 450Q280 433 265 400T227 326T177 240T128 156T89 86T74
43Q74 26 92 26Q106 26 125 36T165 62T204 92T234 117Q305 180 368 252T488 400Q507 426 524 453T561 506Q566 516 577 516Q581 516 584 514T588 507Q588 501 583 496Q563 470 544 433T509 355T478 273T454 201Q433 135 402 66T327 -61T221 -155T79 -191ZM377 549Q374
549 374 554T377 560Q396 574 434 595T513 630L523 631Q533 630 540 623T547 611Q546 608 542 605T527 599Q509 597 481 590T425 572T379 550Q378 550 378 550T377 549Z" />
<glyph unicode="&#xde;" glyph-name="Thorn" horiz-adv-x="439" d="M-16 -109Q-21 -109 -21 -103Q-21 -101 -21 -100T-20 -97Q-14 -79 -3 -53T21 -1T42 41Q78 112 120 189T201 334Q176 327 153 320T107 307Q98 304 91 304Q79 304 73 311T66 330Q66 355 88 364Q95
367 102 369T117 372Q146 378 176 384T237 395Q273 456 298 494T329 532Q338 532 351 530T375 523T381 512Q369 498 349 470T306 404Q334 406 359 406Q386 406 416 402T472 385T514 351T530 295Q530 261 506 234T444 186T369 153T304 133Q268 124 228 113T150 100H147Q145
100 142 101T139 105Q139 111 148 115T161 121Q166 123 171 123T183 124Q199 126 214 130T246 138Q266 143 296 153T359 178T422 212T470 253T489 301Q489 327 468 340T420 357T374 361Q350 361 325 358T272 350Q241 299 209 247T152 152T112 90Q80 45 53 -3T-3
-99Q-5 -102 -8 -105T-16 -109Z" />
<glyph unicode="&#xdf;" glyph-name="germandbls" horiz-adv-x="340" d="M212 -37Q183 -37 170 -15T156 34Q156 36 156 40T161 44Q164 44 165 41T167 35Q176 5 208 5Q225 5 236 16T247 45Q247 65 237 87T217 134T206 186Q206 208 213 225Q222 250 250 265T313
287T371 294Q382 294 390 293Q421 321 441 364T461 450Q461 473 441 482T401 492Q379 492 357 484T317 462Q268 428 230 376T165 265T118 151Q96 87 68 28T1 -77T-94 -151T-227 -179Q-254 -179 -276 -168T-307 -129L-294 -126Q-290 -145 -276 -153T-244 -161Q-211
-161 -181 -145Q-141 -126 -100 -93T-33 -23Q5 31 43 100T122 242T208 374Q256 439 314 481T434 524Q450 524 467 518T497 500T510 469Q510 440 496 405T457 336T405 281Q402 276 391 270T364 260Q335 252 308 238T264 200T247 142Q247 111 257 84T267 25Q267 0
254 -18T212 -37Z" />
<glyph unicode="&#xe0;" glyph-name="agrave" horiz-adv-x="341" d="M218 -4Q199 -4 186 8T173 40Q173 61 184 87T205 132Q193 117 174 95T133 50T88 14T44 -1Q22 -1 13 15T3 50Q3 62 6 74Q13 100 33 128T79 183T134 233T184 271Q194 278 205 283T230 289Q246
289 259 281T284 261Q287 266 288 269T296 272Q300 272 314 269T342 262T355 254Q355 253 354 253Q347 243 339 233T323 213Q298 179 275 142T234 65Q232 59 230 53T228 39Q228 21 246 21Q260 21 280 36T321 73T362 117T394 155T409 170Q412 170 412 166Q412 164
397 147T361 106T323 65T301 41Q285 26 263 11T218 -4ZM55 22Q63 22 71 26T86 34Q125 57 160 94T225 173T279 253Q277 254 272 254Q262 254 251 247Q194 218 143 169T57 63Q53 57 50 49T46 32Q46 22 55 22ZM345 321Q329 334 302 346T248 367T203 381Q184 386 184
394Q184 399 191 406T209 414Q213 414 219 412Q259 396 295 372T348 331Q350 329 350 324T345 321Z" />
<glyph unicode="&#xe1;" glyph-name="aacute" horiz-adv-x="341" d="M218 -4Q199 -4 186 8T173 40Q173 61 184 87T205 132Q193 117 174 95T133 50T88 14T44 -1Q22 -1 13 15T3 50Q3 62 6 74Q13 100 33 128T79 183T134 233T184 271Q194 278 205 283T230 289Q246
289 259 281T284 261Q287 266 288 269T296 272Q300 272 314 269T342 262T355 254Q355 253 354 253Q347 243 339 233T323 213Q298 179 275 142T234 65Q232 59 230 53T228 39Q228 21 246 21Q260 21 280 36T321 73T362 117T394 155T409 170Q412 170 412 166Q412 164
397 147T361 106T323 65T301 41Q285 26 263 11T218 -4ZM55 22Q63 22 71 26T86 34Q125 57 160 94T225 173T279 253Q277 254 272 254Q262 254 251 247Q194 218 143 169T57 63Q53 57 50 49T46 32Q46 22 55 22ZM300 320Q297 320 297 324T299 331Q316 347 352 371T428
412Q434 414 438 414Q448 414 455 407T463 394Q463 386 444 381Q427 377 400 368T346 346T302 321Q301 320 301 320T300 320Z" />
<glyph unicode="&#xe2;" glyph-name="acircumflex" horiz-adv-x="341" d="M218 -4Q199 -4 186 8T173 40Q173 61 184 87T205 132Q193 117 174 95T133 50T88 14T44 -1Q22 -1 13 15T3 50Q3 62 6 74Q13 100 33 128T79 183T134 233T184 271Q194 278 205 283T230 289Q246
289 259 281T284 261Q287 266 288 269T296 272Q300 272 314 269T342 262T355 254Q355 253 354 253Q347 243 339 233T323 213Q298 179 275 142T234 65Q232 59 230 53T228 39Q228 21 246 21Q260 21 280 36T321 73T362 117T394 155T409 170Q412 170 412 166Q412 164
397 147T361 106T323 65T301 41Q285 26 263 11T218 -4ZM55 22Q63 22 71 26T86 34Q125 57 160 94T225 173T279 253Q277 254 272 254Q262 254 251 247Q194 218 143 169T57 63Q53 57 50 49T46 32Q46 22 55 22ZM388 316Q384 316 379 316T369 320Q357 324 343 342T318
375Q296 359 269 347T228 328Q220 324 213 322T203 319Q198 319 198 323Q198 325 207 329T227 341Q251 356 275 373T319 406Q324 411 330 411Q345 411 350 401Q355 389 366 368T384 336Q387 332 391 326T395 318Q393 316 388 316Z" />
<glyph unicode="&#xe3;" glyph-name="atilde" horiz-adv-x="341" d="M218 -4Q199 -4 186 8T173 40Q173 61 184 87T205 132Q193 117 174 95T133 50T88 14T44 -1Q22 -1 13 15T3 50Q3 62 6 74Q13 100 33 128T79 183T134 233T184 271Q194 278 205 283T230 289Q246
289 259 281T284 261Q287 266 288 269T296 272Q300 272 314 269T342 262T355 254Q355 253 354 253Q347 243 339 233T323 213Q298 179 275 142T234 65Q232 59 230 53T228 39Q228 21 246 21Q260 21 280 36T321 73T362 117T394 155T409 170Q412 170 412 166Q412 164
397 147T361 106T323 65T301 41Q285 26 263 11T218 -4ZM55 22Q63 22 71 26T86 34Q125 57 160 94T225 173T279 253Q277 254 272 254Q262 254 251 247Q194 218 143 169T57 63Q53 57 50 49T46 32Q46 22 55 22ZM355 324Q336 324 325 331T303 346T278 354Q262 354 250
343T231 325Q224 323 224 327Q227 339 238 352T266 375T296 384Q322 384 341 372T382 360Q392 360 399 365T416 383Q423 383 423 378Q423 364 411 352T382 332T355 324Z" />
<glyph unicode="&#xe4;" glyph-name="adieresis" horiz-adv-x="341" d="M218 -4Q199 -4 186 8T173 40Q173 61 184 87T205 132Q193 117 174 95T133 50T88 14T44 -1Q22 -1 13 15T3 50Q3 62 6 74Q13 100 33 128T79 183T134 233T184 271Q194 278 205 283T230 289Q246
289 259 281T284 261Q287 266 288 269T296 272Q300 272 314 269T342 262T355 254Q355 253 354 253Q347 243 339 233T323 213Q298 179 275 142T234 65Q232 59 230 53T228 39Q228 21 246 21Q260 21 280 36T321 73T362 117T394 155T409 170Q412 170 412 166Q412 164
397 147T361 106T323 65T301 41Q285 26 263 11T218 -4ZM55 22Q63 22 71 26T86 34Q125 57 160 94T225 173T279 253Q277 254 272 254Q262 254 251 247Q194 218 143 169T57 63Q53 57 50 49T46 32Q46 22 55 22ZM381 319Q375 319 365 324T345 336T336 350Q336 358 348
367T374 384T395 391Q405 391 405 384Q405 381 404 380Q397 373 395 367T390 352Q388 346 388 333T381 319ZM267 319Q261 319 251 324T231 336T222 350Q222 358 234 367T260 384T281 391Q291 391 291 384Q291 381 290 380Q283 373 281 367T276 352Q274 346 274
333T267 319Z" />
<glyph unicode="&#xe5;" glyph-name="aring" horiz-adv-x="341" d="M218 -4Q199 -4 186 8T173 40Q173 61 184 87T205 132Q193 117 174 95T133 50T88 14T44 -1Q22 -1 13 15T3 50Q3 62 6 74Q13 100 33 128T79 183T134 233T184 271Q194 278 205 283T230 289Q246 289
259 281T284 261Q287 266 288 269T296 272Q300 272 314 269T342 262T355 254Q355 253 354 253Q347 243 339 233T323 213Q298 179 275 142T234 65Q232 59 230 53T228 39Q228 21 246 21Q260 21 280 36T321 73T362 117T394 155T409 170Q412 170 412 166Q412 164 397
147T361 106T323 65T301 41Q285 26 263 11T218 -4ZM55 22Q63 22 71 26T86 34Q125 57 160 94T225 173T279 253Q277 254 272 254Q262 254 251 247Q194 218 143 169T57 63Q53 57 50 49T46 32Q46 22 55 22ZM327 319Q308 319 297 330T285 359Q285 386 309 407T362 429Q382
429 393 419T405 391Q405 372 393 356T364 329T327 319ZM331 336Q356 336 371 370Q375 379 375 390Q375 410 360 410Q346 410 331 394T315 357Q315 336 331 336Z" />
<glyph unicode="&#xe6;" glyph-name="ae" horiz-adv-x="341" d="M44 -1Q22 -1 13 15T3 50Q3 62 6 74Q13 101 33 129T79 183T134 233T184 271Q194 279 205 284T230 289Q246 289 259 281T284 261Q287 266 288 269T296 272Q306 272 319 269T341 262Q347 266 360 273T387
287T408 293Q415 293 422 282T435 259T440 239Q440 232 431 227Q414 217 398 206T370 175L391 176H401Q407 176 413 176T425 175Q425 175 425 175T426 173Q426 172 424 171T421 169Q407 167 393 166T365 163Q365 157 362 157Q357 157 357 161Q337 158 316 154T275
141Q263 124 251 98T238 51Q238 37 245 27T268 16Q276 16 284 18T300 25Q348 49 385 82T460 155Q462 157 463 157Q464 157 464 155Q464 152 463 149T459 143Q431 109 397 75T326 17Q298 -1 262 -1Q235 -1 209 13T183 59Q183 73 191 96T205 132Q193 117 175 95T134
50T88 14T44 -1ZM55 22Q63 22 71 26T86 34Q125 57 160 94T225 173T279 253Q277 254 272 254Q262 254 251 247Q194 218 143 169T57 63Q53 57 50 49T46 32Q46 22 55 22ZM300 171Q316 173 331 173T361 175Q367 192 375 208T394 237Q368 224 344 208T300 171Z" />
<glyph unicode="&#xe7;" glyph-name="ccedilla" horiz-adv-x="233" d="M90 -1Q63 -1 37 13T11 59Q11 63 11 66T13 74Q21 109 44 144T99 211T166 268T233 308Q238 310 245 313T256 317Q264 317 272 305T287 278T293 256Q293 250 291 248T284 243Q230 221 209 169Q208
166 205 166Q201 166 201 170Q201 182 209 200T230 234T250 257Q193 230 145 187T73 84Q65 65 65 46Q65 33 71 24T92 14Q101 14 110 17T128 25Q176 49 214 82T288 155Q290 157 291 157Q292 157 292 155Q292 152 291 149T287 143Q261 110 225 75T154 17Q126 -1 90
-1ZM266 -119Q247 -119 240 -114T232 -101Q246 -104 259 -104Q276 -104 287 -99T298 -77Q298 -66 293 -56T287 -26Q287 -11 299 -2T334 7Q336 7 339 6T342 0Q329 -1 323 -8T317 -26Q317 -42 324 -51T332 -81Q332 -97 313 -108T266 -119Z" />
<glyph unicode="&#xe8;" glyph-name="egrave" horiz-adv-x="233" d="M91 -1Q63 -1 37 13T11 59Q11 63 11 66T13 74Q21 108 42 141T94 203T158 254T223 289Q226 291 229 292T236 293Q245 293 251 284T260 262T263 243Q263 225 253 207T229 176Q235 176 241 176T253
175Q255 175 255 173Q255 172 253 171T249 169L219 166Q191 163 161 157T104 141Q91 123 78 96T65 46Q65 33 71 24T92 14Q101 14 110 17T128 25Q176 49 214 82T288 155Q290 157 291 157Q293 157 293 155Q293 152 291 149T287 143Q260 109 225 75T154 17Q126 -1
91 -1ZM129 171Q152 173 175 174T221 176Q227 184 231 197T236 221Q236 226 234 231T225 237H222Q210 233 192 221T156 195T129 171ZM275 321Q259 334 232 346T178 367T133 381Q114 386 114 394Q114 399 121 406T139 414Q143 414 149 412Q189 396 225 372T278 331Q280
329 280 324T275 321Z" />
<glyph unicode="&#xe9;" glyph-name="eacute" horiz-adv-x="233" d="M91 -1Q63 -1 37 13T11 59Q11 63 11 66T13 74Q21 108 42 141T94 203T158 254T223 289Q226 291 229 292T236 293Q245 293 251 284T260 262T263 243Q263 225 253 207T229 176Q235 176 241 176T253
175Q255 175 255 173Q255 172 253 171T249 169L219 166Q191 163 161 157T104 141Q91 123 78 96T65 46Q65 33 71 24T92 14Q101 14 110 17T128 25Q176 49 214 82T288 155Q290 157 291 157Q293 157 293 155Q293 152 291 149T287 143Q260 109 225 75T154 17Q126 -1
91 -1ZM129 171Q152 173 175 174T221 176Q227 184 231 197T236 221Q236 226 234 231T225 237H222Q210 233 192 221T156 195T129 171ZM230 320Q227 320 227 324T229 331Q246 347 282 371T358 412Q364 414 368 414Q378 414 385 407T393 394Q393 386 374 381Q357 377
330 368T276 346T232 321Q231 320 231 320T230 320Z" />
<glyph unicode="&#xea;" glyph-name="ecircumflex" horiz-adv-x="233" d="M91 -1Q63 -1 37 13T11 59Q11 63 11 66T13 74Q21 108 42 141T94 203T158 254T223 289Q226 291 229 292T236 293Q245 293 251 284T260 262T263 243Q263 225 253 207T229 176Q235 176 241
176T253 175Q255 175 255 173Q255 172 253 171T249 169L219 166Q191 163 161 157T104 141Q91 123 78 96T65 46Q65 33 71 24T92 14Q101 14 110 17T128 25Q176 49 214 82T288 155Q290 157 291 157Q293 157 293 155Q293 152 291 149T287 143Q260 109 225 75T154 17Q126
-1 91 -1ZM129 171Q152 173 175 174T221 176Q227 184 231 197T236 221Q236 226 234 231T225 237H222Q210 233 192 221T156 195T129 171ZM318 316Q314 316 309 316T299 320Q287 324 273 342T248 375Q226 359 199 347T158 328Q150 324 143 322T133 319Q128 319 128
323Q128 325 137 329T157 341Q181 356 205 373T249 406Q254 411 260 411Q275 411 280 401Q285 389 296 368T314 336Q317 332 321 326T325 318Q323 316 318 316Z" />
<glyph unicode="&#xeb;" glyph-name="edieresis" horiz-adv-x="233" d="M91 -1Q63 -1 37 13T11 59Q11 63 11 66T13 74Q21 108 42 141T94 203T158 254T223 289Q226 291 229 292T236 293Q245 293 251 284T260 262T263 243Q263 225 253 207T229 176Q235 176 241 176T253
175Q255 175 255 173Q255 172 253 171T249 169L219 166Q191 163 161 157T104 141Q91 123 78 96T65 46Q65 33 71 24T92 14Q101 14 110 17T128 25Q176 49 214 82T288 155Q290 157 291 157Q293 157 293 155Q293 152 291 149T287 143Q260 109 225 75T154 17Q126 -1
91 -1ZM129 171Q152 173 175 174T221 176Q227 184 231 197T236 221Q236 226 234 231T225 237H222Q210 233 192 221T156 195T129 171ZM311 319Q305 319 295 324T275 336T266 350Q266 358 278 367T304 384T325 391Q335 391 335 384Q335 381 334 380Q327 373 325 367T320
352Q318 346 318 333T311 319ZM197 319Q191 319 181 324T161 336T152 350Q152 358 164 367T190 384T211 391Q221 391 221 384Q221 381 220 380Q213 373 211 367T206 352Q204 346 204 333T197 319Z" />
<glyph unicode="&#xec;" glyph-name="igrave" horiz-adv-x="170" d="M48 -4Q29 -4 16 8T3 39Q3 43 3 46T5 54Q13 81 29 114T65 181T100 238Q105 246 109 254T120 270Q121 272 126 272Q130 272 144 269T172 262T185 254Q185 253 184 253Q177 243 169 233T153 213Q128
179 105 142T64 65Q62 59 60 53T58 39Q58 21 75 21Q89 21 109 36T150 73T191 117T223 155T238 170Q242 170 242 166Q242 164 232 152T207 123T175 88T146 57T130 41Q114 26 93 11T48 -4ZM204 321Q188 334 161 346T107 367T62 381Q43 386 43 394Q43 399 50 406T68
414Q72 414 78 412Q118 396 154 372T207 331Q209 329 209 324T204 321Z" />
<glyph unicode="&#xed;" glyph-name="iacute" horiz-adv-x="170" d="M48 -4Q29 -4 16 8T3 39Q3 43 3 46T5 54Q13 81 29 114T65 181T100 238Q105 246 109 254T120 270Q121 272 126 272Q130 272 144 269T172 262T185 254Q185 253 184 253Q177 243 169 233T153 213Q128
179 105 142T64 65Q62 59 60 53T58 39Q58 21 75 21Q89 21 109 36T150 73T191 117T223 155T238 170Q242 170 242 166Q242 164 232 152T207 123T175 88T146 57T130 41Q114 26 93 11T48 -4ZM159 320Q156 320 156 324T158 331Q175 347 211 371T287 412Q293 414 297
414Q307 414 314 407T322 394Q322 386 303 381Q286 377 259 368T205 346T161 321Q160 320 160 320T159 320Z" />
<glyph unicode="&#xee;" glyph-name="icircumflex" horiz-adv-x="170" d="M48 -4Q29 -4 16 8T3 39Q3 43 3 46T5 54Q13 81 29 114T65 181T100 238Q105 246 109 254T120 270Q121 272 126 272Q130 272 144 269T172 262T185 254Q185 253 184 253Q177 243 169 233T153
213Q128 179 105 142T64 65Q62 59 60 53T58 39Q58 21 75 21Q89 21 109 36T150 73T191 117T223 155T238 170Q242 170 242 166Q242 164 232 152T207 123T175 88T146 57T130 41Q114 26 93 11T48 -4ZM247 316Q243 316 238 316T228 320Q216 324 202 342T177 375Q155
359 128 347T87 328Q79 324 72 322T62 319Q57 319 57 323Q57 325 66 329T86 341Q110 356 134 373T178 406Q183 411 189 411Q204 411 209 401Q214 389 225 368T243 336Q246 332 250 326T254 318Q252 316 247 316Z" />
<glyph unicode="&#xef;" glyph-name="idieresis" horiz-adv-x="170" d="M48 -4Q29 -4 16 8T3 39Q3 43 3 46T5 54Q13 81 29 114T65 181T100 238Q105 246 109 254T120 270Q121 272 126 272Q130 272 144 269T172 262T185 254Q185 253 184 253Q177 243 169 233T153
213Q128 179 105 142T64 65Q62 59 60 53T58 39Q58 21 75 21Q89 21 109 36T150 73T191 117T223 155T238 170Q242 170 242 166Q242 164 232 152T207 123T175 88T146 57T130 41Q114 26 93 11T48 -4ZM240 319Q234 319 224 324T204 336T195 350Q195 358 207 367T233
384T254 391Q264 391 264 384Q264 381 263 380Q256 373 254 367T249 352Q247 346 247 333T240 319ZM126 319Q120 319 110 324T90 336T81 350Q81 358 93 367T119 384T140 391Q150 391 150 384Q150 381 149 380Q142 373 140 367T135 352Q133 346 133 333T126 319Z"
/>
<glyph unicode="&#xf0;" glyph-name="eth" horiz-adv-x="349" d="M207 4Q172 4 141 28T89 88T69 165Q69 182 74 200Q77 210 83 220Q108 263 137 277T187 295Q172 309 156 323T124 350Q111 346 98 342T71 334L65 332Q63 331 59 331Q49 331 48 343V345Q48 352 51
358T58 365L96 375Q80 390 68 401T51 420V421Q51 423 57 430T71 444T83 451Q87 451 111 436T168 393L203 402L244 413Q245 413 247 413T249 411V410Q249 404 242 399T233 391Q224 384 213 381T191 373Q223 344 253 307T303 228T323 141Q323 119 318 98T300 55Q288
35 270 24T235 9T207 4ZM240 34Q253 34 264 40T285 62Q300 89 300 116Q300 156 275 194T216 267Q204 271 191 273T161 273Q154 272 142 269T119 246Q109 229 109 204Q109 182 116 160T132 121T146 94Q163 69 185 53Q195 47 209 41T240 34Z" />
<glyph unicode="&#xf1;" glyph-name="ntilde" horiz-adv-x="320" d="M201 -3Q181 -3 171 10T161 43Q161 69 173 100T200 160T227 209T239 236Q239 238 237 238Q234 238 230 236T224 231Q194 211 162 175T101 100T53 28Q42 9 28 5T-7 0Q0 16 8 31T23 60Q35 84 45
107T65 155Q73 176 82 204T91 255Q91 261 90 267T86 278Q83 281 83 281Q83 287 90 287Q96 287 111 280T139 264T153 246Q153 231 142 203T116 149T91 109Q90 108 89 106T87 102L88 101Q90 101 104 118T139 162T187 214T239 258T287 276Q298 276 312 271T326 251Q326
247 324 244T320 236Q289 194 262 155T214 65Q212 59 210 53T207 39Q207 21 225 21Q240 21 260 36T301 73T342 117T374 155T389 170Q392 170 392 166Q392 165 384 155T366 134T354 121Q337 102 316 77T270 30T221 0Q212 -3 201 -3ZM309 324Q290 324 279 331T257
346T232 354Q216 354 204 343T185 325Q178 323 178 327Q181 339 192 352T220 375T250 384Q276 384 295 372T336 360Q346 360 353 365T370 383Q377 383 377 378Q377 364 365 352T336 332T309 324Z" />
<glyph unicode="&#xf2;" glyph-name="ograve" horiz-adv-x="294" d="M92 -4Q63 -4 39 14T14 63Q14 86 29 118T68 183T123 244T182 290T236 308Q244 308 253 306T267 295Q287 296 295 284T303 253Q303 226 288 192T251 127T213 76L219 75Q248 74 270 87T312 120T350
158L352 160Q355 160 355 155Q355 153 354 152Q340 132 318 112T270 78T218 64Q214 64 211 64T203 65Q190 51 172 35T134 8T92 -4ZM98 11Q124 11 148 33T189 73Q183 76 174 83T165 99Q165 113 184 125T226 148T259 163Q269 179 277 200T285 241Q285 252 281 260T263
268Q252 268 240 263T219 253Q168 226 127 179T69 75Q68 69 67 63T65 50Q65 34 73 23T98 11ZM311 346Q295 359 268 371T214 392T169 406Q150 411 150 419Q150 424 157 431T175 439Q179 439 185 437Q225 421 261 397T314 356Q316 354 316 349T311 346Z" />
<glyph unicode="&#xf3;" glyph-name="oacute" horiz-adv-x="294" d="M92 -4Q63 -4 39 14T14 63Q14 86 29 118T68 183T123 244T182 290T236 308Q244 308 253 306T267 295Q287 296 295 284T303 253Q303 226 288 192T251 127T213 76L219 75Q248 74 270 87T312 120T350
158L352 160Q355 160 355 155Q355 153 354 152Q340 132 318 112T270 78T218 64Q214 64 211 64T203 65Q190 51 172 35T134 8T92 -4ZM98 11Q124 11 148 33T189 73Q183 76 174 83T165 99Q165 113 184 125T226 148T259 163Q269 179 277 200T285 241Q285 252 281 260T263
268Q252 268 240 263T219 253Q168 226 127 179T69 75Q68 69 67 63T65 50Q65 34 73 23T98 11ZM266 345Q263 345 263 349T265 356Q282 372 318 396T394 437Q400 439 404 439Q414 439 421 432T429 419Q429 411 410 406Q393 402 366 393T312 371T268 346Q267 345 267
345T266 345Z" />
<glyph unicode="&#xf4;" glyph-name="ocircumflex" horiz-adv-x="294" d="M92 -4Q63 -4 39 14T14 63Q14 86 29 118T68 183T123 244T182 290T236 308Q244 308 253 306T267 295Q287 296 295 284T303 253Q303 226 288 192T251 127T213 76L219 75Q248 74 270 87T312
120T350 158L352 160Q355 160 355 155Q355 153 354 152Q340 132 318 112T270 78T218 64Q214 64 211 64T203 65Q190 51 172 35T134 8T92 -4ZM98 11Q124 11 148 33T189 73Q183 76 174 83T165 99Q165 113 184 125T226 148T259 163Q269 179 277 200T285 241Q285 252
281 260T263 268Q252 268 240 263T219 253Q168 226 127 179T69 75Q68 69 67 63T65 50Q65 34 73 23T98 11ZM354 341Q350 341 345 341T335 345Q323 349 309 367T284 400Q262 384 235 372T194 353Q186 349 179 347T169 344Q164 344 164 348Q164 350 173 354T193 366Q217
381 241 398T285 431Q290 436 296 436Q311 436 316 426Q321 414 332 393T350 361Q353 357 357 351T361 343Q359 341 354 341Z" />
<glyph unicode="&#xf5;" glyph-name="otilde" horiz-adv-x="294" d="M92 -4Q63 -4 39 14T14 63Q14 86 29 118T68 183T123 244T182 290T236 308Q244 308 253 306T267 295Q287 296 295 284T303 253Q303 226 288 192T251 127T213 76L219 75Q248 74 270 87T312 120T350
158L352 160Q355 160 355 155Q355 153 354 152Q340 132 318 112T270 78T218 64Q214 64 211 64T203 65Q190 51 172 35T134 8T92 -4ZM98 11Q124 11 148 33T189 73Q183 76 174 83T165 99Q165 113 184 125T226 148T259 163Q269 179 277 200T285 241Q285 252 281 260T263
268Q252 268 240 263T219 253Q168 226 127 179T69 75Q68 69 67 63T65 50Q65 34 73 23T98 11ZM321 349Q302 349 291 356T269 371T244 379Q228 379 216 368T197 350Q190 348 190 352Q193 364 204 377T232 400T262 409Q288 409 307 397T348 385Q358 385 365 390T382
408Q389 408 389 403Q389 389 377 377T348 357T321 349Z" />
<glyph unicode="&#xf6;" glyph-name="odieresis" horiz-adv-x="294" d="M92 -4Q63 -4 39 14T14 63Q14 86 29 118T68 183T123 244T182 290T236 308Q244 308 253 306T267 295Q287 296 295 284T303 253Q303 226 288 192T251 127T213 76L219 75Q248 74 270 87T312
120T350 158L352 160Q355 160 355 155Q355 153 354 152Q340 132 318 112T270 78T218 64Q214 64 211 64T203 65Q190 51 172 35T134 8T92 -4ZM98 11Q124 11 148 33T189 73Q183 76 174 83T165 99Q165 113 184 125T226 148T259 163Q269 179 277 200T285 241Q285 252
281 260T263 268Q252 268 240 263T219 253Q168 226 127 179T69 75Q68 69 67 63T65 50Q65 34 73 23T98 11ZM347 344Q341 344 331 349T311 361T302 375Q302 383 314 392T340 409T361 416Q371 416 371 409Q371 406 370 405Q363 398 361 392T356 377Q354 371 354 358T347
344ZM233 344Q227 344 217 349T197 361T188 375Q188 383 200 392T226 409T247 416Q257 416 257 409Q257 406 256 405Q249 398 247 392T242 377Q240 371 240 358T233 344Z" />
<glyph unicode="&#xf7;" glyph-name="divide" horiz-adv-x="363" d="M252 175Q246 175 234 181T211 195T201 211Q201 220 215 231T245 250T269 259Q273 259 276 257T280 250Q280 247 279 246Q267 231 263 213Q262 209 262 200T261 183T252 175ZM93 109Q86 109
79 111T71 123Q71 129 76 134T87 140H355Q357 140 359 140T362 137Q362 133 352 129T337 123Q320 119 300 119T260 116Q221 114 182 113T102 109H93ZM145 -24Q139 -24 127 -19T105 -5T95 11Q95 20 108 31T138 51T163 59Q167 59 170 57T174 50L173 46Q162 32 156
14Q155 10 155 1T154 -16T145 -24Z" />
<glyph unicode="&#xf8;" glyph-name="oslash" horiz-adv-x="294" d="M30 -62Q26 -62 24 -57T22 -49Q22 -36 31 -19T48 8Q32 17 23 30T14 63Q14 86 29 117T68 182T122 244T181 290T236 308Q244 308 253 306T267 295L279 294Q281 297 291 308T311 329T323 339Q327
339 336 336T346 328Q346 324 336 313T315 290T300 274Q302 269 302 264T303 253Q303 230 290 197T253 129T202 64T146 15T92 -4Q76 -4 62 2Q56 -6 47 -20T37 -45Q37 -50 39 -51T41 -54Q41 -57 37 -59T30 -62ZM67 35Q112 95 159 153T256 268Q246 267 237 263T219
253Q170 227 127 179T69 75Q68 69 67 63T65 50Q65 46 65 43T67 35ZM99 11Q117 11 139 26T185 67T228 120T262 173T281 215Q286 230 286 243Q286 248 284 256Q231 198 179 140T76 20Q85 11 99 11Z" />
<glyph unicode="&#xf9;" glyph-name="ugrave" horiz-adv-x="305" d="M54 -4Q35 -4 23 10T11 43Q11 74 24 107T56 172T88 227T102 261Q102 266 99 267Q117 275 133 275Q143 275 158 271T173 253Q173 249 171 246T167 239Q137 197 110 155T63 65Q61 59 59 52T56
38Q56 21 73 21Q88 21 108 42T149 96T190 164T227 228T253 270Q254 272 259 272Q263 272 277 269T305 262T318 254Q318 253 317 253Q310 243 302 233T286 213Q261 179 238 142T197 65Q195 59 193 53T191 39Q191 21 209 21Q224 21 244 36T285 73T325 117T357 155T372
170Q376 170 376 166Q376 165 368 155T350 134T338 121Q320 100 294 71T239 20T179 -3Q138 -3 138 39Q138 56 144 71Q135 57 121 40T90 9T54 -4ZM276 321Q260 334 233 346T179 367T134 381Q115 386 115 394Q115 399 122 406T140 414Q144 414 150 412Q190 396 226
372T279 331Q281 329 281 324T276 321Z" />
<glyph unicode="&#xfa;" glyph-name="uacute" horiz-adv-x="305" d="M54 -4Q35 -4 23 10T11 43Q11 74 24 107T56 172T88 227T102 261Q102 266 99 267Q117 275 133 275Q143 275 158 271T173 253Q173 249 171 246T167 239Q137 197 110 155T63 65Q61 59 59 52T56
38Q56 21 73 21Q88 21 108 42T149 96T190 164T227 228T253 270Q254 272 259 272Q263 272 277 269T305 262T318 254Q318 253 317 253Q310 243 302 233T286 213Q261 179 238 142T197 65Q195 59 193 53T191 39Q191 21 209 21Q224 21 244 36T285 73T325 117T357 155T372
170Q376 170 376 166Q376 165 368 155T350 134T338 121Q320 100 294 71T239 20T179 -3Q138 -3 138 39Q138 56 144 71Q135 57 121 40T90 9T54 -4ZM231 320Q228 320 228 324T230 331Q247 347 283 371T359 412Q365 414 369 414Q379 414 386 407T394 394Q394 386 375
381Q358 377 331 368T277 346T233 321Q232 320 232 320T231 320Z" />
<glyph unicode="&#xfb;" glyph-name="ucircumflex" horiz-adv-x="305" d="M54 -4Q35 -4 23 10T11 43Q11 74 24 107T56 172T88 227T102 261Q102 266 99 267Q117 275 133 275Q143 275 158 271T173 253Q173 249 171 246T167 239Q137 197 110 155T63 65Q61 59 59 52T56
38Q56 21 73 21Q88 21 108 42T149 96T190 164T227 228T253 270Q254 272 259 272Q263 272 277 269T305 262T318 254Q318 253 317 253Q310 243 302 233T286 213Q261 179 238 142T197 65Q195 59 193 53T191 39Q191 21 209 21Q224 21 244 36T285 73T325 117T357 155T372
170Q376 170 376 166Q376 165 368 155T350 134T338 121Q320 100 294 71T239 20T179 -3Q138 -3 138 39Q138 56 144 71Q135 57 121 40T90 9T54 -4ZM319 316Q315 316 310 316T300 320Q288 324 274 342T249 375Q227 359 200 347T159 328Q151 324 144 322T134 319Q129
319 129 323Q129 325 138 329T158 341Q182 356 206 373T250 406Q255 411 261 411Q276 411 281 401Q286 389 297 368T315 336Q318 332 322 326T326 318Q324 316 319 316Z" />
<glyph unicode="&#xfc;" glyph-name="udieresis" horiz-adv-x="305" d="M54 -4Q35 -4 23 10T11 43Q11 74 24 107T56 172T88 227T102 261Q102 266 99 267Q117 275 133 275Q143 275 158 271T173 253Q173 249 171 246T167 239Q137 197 110 155T63 65Q61 59 59 52T56
38Q56 21 73 21Q88 21 108 42T149 96T190 164T227 228T253 270Q254 272 259 272Q263 272 277 269T305 262T318 254Q318 253 317 253Q310 243 302 233T286 213Q261 179 238 142T197 65Q195 59 193 53T191 39Q191 21 209 21Q224 21 244 36T285 73T325 117T357 155T372
170Q376 170 376 166Q376 165 368 155T350 134T338 121Q320 100 294 71T239 20T179 -3Q138 -3 138 39Q138 56 144 71Q135 57 121 40T90 9T54 -4ZM312 319Q306 319 296 324T276 336T267 350Q267 358 279 367T305 384T326 391Q336 391 336 384Q336 381 335 380Q328
373 326 367T321 352Q319 346 319 333T312 319ZM198 319Q192 319 182 324T162 336T153 350Q153 358 165 367T191 384T212 391Q222 391 222 384Q222 381 221 380Q214 373 212 367T207 352Q205 346 205 333T198 319Z" />
<glyph unicode="&#xfd;" glyph-name="yacute" horiz-adv-x="257" d="M-21 -158Q-40 -158 -57 -150T-81 -121L-72 -119Q-68 -133 -58 -138T-34 -144Q-9 -144 11 -133Q42 -118 72 -82T129 -1T179 88T217 162Q209 150 192 126T153 75T113 27T81 1Q69 -4 61 -4Q42
-4 30 10T18 43Q18 73 31 107T63 172T95 227T109 261Q109 266 106 267Q124 275 139 275Q149 275 164 271T180 253Q180 249 178 246T174 239Q145 198 118 156T70 65Q68 59 66 53T63 38Q63 21 80 21Q91 21 109 39T150 87T193 147T230 204T254 241Q259 250 269 265T292
294T316 307Q325 307 332 300T339 284Q339 272 327 272Q302 272 286 260T259 225Q239 180 225 129T195 26T154 -66T87 -133T-21 -158ZM229 320Q226 320 226 324T228 331Q245 347 281 371T357 412Q363 414 367 414Q377 414 384 407T392 394Q392 386 373 381Q356
377 329 368T275 346T231 321Q230 320 230 320T229 320Z" />
<glyph unicode="&#xfe;" glyph-name="thorn" horiz-adv-x="299" d="M-151 -160Q-173 -160 -192 -153T-219 -121L-210 -119Q-207 -133 -197 -138T-173 -144Q-134 -144 -96 -117T-24 -42T43 63T102 182T153 301T194 404T224 475Q226 479 233 477T248 470T256 461Q256
454 250 438T242 415Q218 353 196 305T151 208T97 99L86 75Q108 109 139 152T206 233T278 290Q281 292 284 292T290 292Q310 292 327 278T345 242Q345 235 343 229T338 215Q318 172 281 130T200 53T110 1Q105 0 99 -2T87 -5Q80 -5 72 -2T58 6Q38 -39 10 -76T-58
-137T-151 -160ZM68 22Q133 51 187 99T278 209Q283 217 291 232T299 258Q299 267 291 267Q282 267 267 259T239 239T218 222Q192 199 163 165T109 93T68 22Z" />
<glyph unicode="&#xff;" glyph-name="ydieresis" horiz-adv-x="257" d="M-21 -158Q-40 -158 -57 -150T-81 -121L-72 -119Q-68 -133 -58 -138T-34 -144Q-9 -144 11 -133Q42 -118 72 -82T129 -1T179 88T217 162Q209 150 192 126T153 75T113 27T81 1Q69 -4 61 -4Q42
-4 30 10T18 43Q18 73 31 107T63 172T95 227T109 261Q109 266 106 267Q124 275 139 275Q149 275 164 271T180 253Q180 249 178 246T174 239Q145 198 118 156T70 65Q68 59 66 53T63 38Q63 21 80 21Q91 21 109 39T150 87T193 147T230 204T254 241Q259 250 269 265T292
294T316 307Q325 307 332 300T339 284Q339 272 327 272Q302 272 286 260T259 225Q239 180 225 129T195 26T154 -66T87 -133T-21 -158ZM310 319Q304 319 294 324T274 336T265 350Q265 358 277 367T303 384T324 391Q334 391 334 384Q334 381 333 380Q326 373 324
367T319 352Q317 346 317 333T310 319ZM196 319Q190 319 180 324T160 336T151 350Q151 358 163 367T189 384T210 391Q220 391 220 384Q220 381 219 380Q212 373 210 367T205 352Q203 346 203 333T196 319Z" />
<glyph unicode="&#x2013;" glyph-name="endash" horiz-adv-x="385" d="M114 148Q107 148 99 150T91 162Q91 168 96 173T108 179H376Q377 179 380 179T383 177Q383 172 373 168T358 163Q340 159 320 158T281 156Q241 153 202 152T123 149L114 148Z" />
<glyph unicode="&#x2014;" glyph-name="emdash" horiz-adv-x="528" d="M114 148Q107 148 99 150T91 162Q91 168 96 173T108 179H517Q519 179 521 179T524 177Q524 172 514 168T499 163Q488 160 465 159T418 157T381 156Q317 153 253 152T123 149L114 148Z" />
<glyph unicode="&#x2018;" glyph-name="quoteleft" horiz-adv-x="202" d="M120 390Q113 390 100 394T75 407T64 424Q64 431 78 450T111 491T148 528T172 544Q178 544 178 536Q178 532 176 528Q156 508 142 486T128 435Q128 427 129 420T131 404Q131 399 129 395T120 390Z" />
<glyph unicode="&#x2019;" glyph-name="quoteright" horiz-adv-x="190" d="M82 387Q78 387 77 390T75 395Q75 400 78 403Q98 423 112 445T126 497Q126 505 125 512T123 527Q123 541 133 541Q141 541 154 537T179 525T190 507Q190 500 176 481T142 440T105 403T82 387Z" />
<glyph unicode="&#x201a;" glyph-name="quotesinglbase" horiz-adv-x="296" d="M64 -20Q60 -20 59 -17T57 -12Q57 -7 60 -4Q80 16 94 38T108 90Q108 98 107 105T105 120Q105 134 115 134Q123 134 136 130T161 118T172 100Q172 93 158 74T124 33T87 -4T64 -20Z" />
<glyph unicode="&#x201c;" glyph-name="quotedblleft" horiz-adv-x="295" d="M213 390Q206 390 193 394T168 407T157 424Q157 431 171 450T204 491T241 528T265 544Q271 544 271 536Q271 530 269 528Q249 508 235 486T221 435Q221 427 222 420T224 404Q224 399
222 395T213 390ZM120 390Q113 390 100 394T75 407T64 424Q64 431 78 450T111 491T148 528T171 544Q178 544 178 536Q178 531 175 528Q156 508 142 486T127 435Q127 427 128 420T130 404Q130 399 128 395T120 390Z" />
<glyph unicode="&#x201d;" glyph-name="quotedblright" horiz-adv-x="363" d="M135 387Q131 387 130 390T128 395Q128 400 131 403Q151 423 165 445T179 497Q179 505 178 512T176 527Q176 541 186 541Q194 541 207 537T232 525T243 507Q243 500 229 481T195 440T158
403T135 387ZM228 387Q225 387 224 390T222 395Q222 401 224 403Q244 423 258 445T272 497Q272 505 271 512T269 527Q269 541 280 541Q287 541 300 537T325 525T336 507Q336 500 322 481T289 440T252 403T228 387Z" />
<glyph unicode="&#x201e;" glyph-name="quotedblbase" horiz-adv-x="341" d="M177 -20Q173 -20 172 -17T170 -12Q170 -7 173 -4Q193 16 207 38T221 90Q221 98 220 105T218 120Q218 134 228 134Q236 134 249 130T274 118T285 100Q285 93 271 74T237 33T200 -4T177
-20ZM64 -20Q60 -20 59 -17T57 -12Q57 -7 60 -4Q80 16 94 38T108 90Q108 98 107 105T105 120Q105 134 115 134Q123 134 136 130T161 118T172 100Q172 93 158 74T124 33T87 -4T64 -20Z" />
<glyph unicode="&#x2022;" glyph-name="bullet" horiz-adv-x="424" d="M211 60Q165 60 128 82T68 142T45 226Q45 272 67 309T127 369T211 392Q257 392 294 370T354 310T377 226Q377 180 355 143T295 83T211 60Z" />
<glyph unicode="&#x2039;" glyph-name="guilsinglleft" horiz-adv-x="273" d="M191 44Q190 44 189 47T187 51Q168 91 141 124T83 189Q82 190 82 192V195Q84 200 97 215T130 250T170 289T206 324T228 345Q236 353 244 362T262 378Q269 383 276 383Q282 383 282
378Q282 374 269 358T236 319T195 275T158 235T135 212Q140 202 150 182T172 139T192 97T200 68Q200 66 197 55T191 44Z" />
<glyph unicode="&#x203a;" glyph-name="guilsinglright" horiz-adv-x="264" d="M61 46Q55 46 55 51Q55 55 68 71T101 110T142 154T179 194T201 217Q196 228 186 248T164 290T144 332T136 361Q136 363 139 373T145 384Q147 384 148 382T150 378Q169 338 196 304T254
240Q255 239 255 236V234Q253 229 240 214T207 179T167 140T131 105T108 83Q100 76 92 67T75 51Q68 46 61 46Z" />
</font>
</defs>
</svg>
